<svg id="bottegaVenetaLogo" xmlns="http://www.w3.org/2000/svg" viewBox="0 0 806.01 70.4">
    <title>Bottega Veneta</title>
    <defs>
        <style>
            .cls-1 {
                fill: #231f20;
            }
        </style>
    </defs>
    <path class="cls-1" d="M92.86,0C73,0,57,15.76,57,35.2S73,70.4,92.86,70.4s35.9-15.76,35.9-35.2S112.69,0,92.86,0Zm0,66.22c-14.3,0-22.9-13.89-22.9-31s8.6-31,22.9-31,22.9,13.89,22.9,31S107.16,66.22,92.86,66.22Z"></path>
    <path class="cls-1" d="M28.26,30.14C38.15,27.19,43,22.67,43,16.35A13.29,13.29,0,0,0,35.61,4.7c-3.93-2.08-10.35-3.13-19.1-3.13H0V2.85c2.7,1.31,2.62,5.66,2.62,8.74V58.81c0,3.08.08,7.43-2.62,8.74v1.28H20.43c4.14,0,12.1-.49,18.83-3.77s10.17-8.34,10.17-15C49.42,37.61,38.74,31.67,28.26,30.14ZM13.6,5.75h6c7.68,0,11.9,3.91,11.9,11,0,7.7-4.27,11.6-12.7,11.6H13.6Zm5.43,59H13.6V32.54h2.33c8,0,21.3,2.18,21.3,16.8C37.24,59.13,30.61,64.75,19,64.75Z"></path>
    <path class="cls-1" d="M131.19,8.95h1.26c2.21-3.33,6-3.3,9.1-3.3h5.52V58.81h0c0,3.08.08,7.43-2.62,8.74v1.28h16.22V67.55C158,66.24,158,61.89,158,58.81h0V5.65h5.52c3.05,0,6.88,0,9.1,3.3h1.26V1.57H131.19Z"></path>
    <path class="cls-1" d="M184.92,8.95h1.26c2.21-3.33,6-3.3,9.1-3.3h5.52V58.81h0c0,3.08.08,7.43-2.62,8.74v1.28h16.22V67.55c-2.7-1.31-2.62-5.66-2.62-8.74h0V5.65h5.52c3.05,0,6.88,0,9.1,3.3h1.26V1.57H184.92Z"></path>
    <path class="cls-1" d="M701.62,8.95h1.26c2.21-3.33,6-3.3,9.1-3.3h5.52V58.81h0c0,3.08.08,7.43-2.62,8.74v1.28h16.22V67.55c-2.7-1.31-2.62-5.66-2.62-8.74h0V5.65H734c3.05,0,6.88,0,9.1,3.3h1.26V1.57H701.62Z"></path>
    <path class="cls-1" d="M274,64.75H252.87V36.3h15.4c3.1,0,7.53,0,8.74,2.62h1.28V29.6H277c-1.21,2.66-5.64,2.62-8.74,2.62h-15.4V5.65h18.37c3.05,0,6.92,0,9.1,3.3h1.26V1.57h-43V2.83C242,5,242,9.06,242,12.21v46c0,3.15,0,7.16-3.4,9.38v1.26h45.82V61.45h-1.26C281.05,64.74,277.1,64.75,274,64.75Z"></path>
    <path class="cls-1" d="M561.89,64.75H540.71V36.3h15.4c3.1,0,7.53,0,8.74,2.62h1.28V29.6h-1.28c-1.21,2.66-5.64,2.62-8.74,2.62h-15.4V5.65h18.37c3.05,0,6.92,0,9.1,3.3h1.26V1.57h-43V2.83c3.42,2.22,3.4,6.23,3.4,9.38v46c0,3.15,0,7.16-3.4,9.38v1.26h45.82V61.45H571C568.89,64.74,564.95,64.75,561.89,64.75Z"></path>
    <path class="cls-1" d="M682,64.75H660.85V36.3h15.4c3.1,0,7.53,0,8.74,2.62h1.28V29.6H685c-1.21,2.66-5.64,2.62-8.74,2.62h-15.4V5.65h18.37c3.05,0,6.92,0,9.1,3.3h1.26V1.57h-43V2.83C650,5,650,9.06,650,12.21v46c0,3.15,0,7.16-3.4,9.38v1.26h45.82V61.45h-1.26C689,64.74,685.08,64.75,682,64.75Z"></path>
    <path class="cls-1" d="M419.49,60.42,396.81,1.75l-.07-.19h-5.1L369.09,60.31c-.84,2.34-3.06,6.43-5.7,7.18v1.35H375V67.52c-2.38-1.14-2.94-3.1-2-5.73l5.64-14.85h24.09l5.58,14.85c1,2.63.38,4.64-2,5.73v1.31h18.08V67.51C422,66.61,420.16,62.07,419.49,60.42ZM380.16,42.85l10.47-27.38,10.47,27.38Z"></path>
    <path class="cls-1" d="M344.84,38.66s4.44.65,4.44,6.9c0,12.29-11.06,20.54-21.4,20.54-7.88,0-14.27-3.35-18.5-9.67-3.61-5.41-5.21-12.95-5.21-21.23,0-8.8,1.59-16.28,5.36-21.65,4.35-6.21,10.83-9.35,19.25-9.35,9.9,0,17.13,3.7,22.24,11,.47.67.9,1.38,1.32,2.1l1.25-.21V1.59h-1.25c-1.4,1.34-4.67,1.38-6.92,1.14a36.86,36.86,0,0,1-5.53-1.11A46.89,46.89,0,0,0,327.58,0a35.43,35.43,0,0,0-21.64,7A37.43,37.43,0,0,0,291.38,35.8a33.4,33.4,0,0,0,10.87,24.93,37.73,37.73,0,0,0,25.64,9.67c12.76,0,23.18-5.72,29.35-16.09,3.19-5.42,4-9.51,4.58-16.89h-17Z"></path>
    <path class="cls-1" d="M801.06,60.42,778.38,1.75l-.07-.19h-5.1L750.67,60.31c-.84,2.34-3.06,6.43-5.7,7.18v1.35h11.56V67.52c-2.38-1.14-2.94-3.1-2-5.73l5.64-14.85H784.3l5.58,14.85c1,2.63.38,4.64-2,5.73v1.31H806V67.51C803.58,66.61,801.73,62.07,801.06,60.42ZM761.74,42.85l10.47-27.38,10.47,27.38Z"></path>
    <path class="cls-1" d="M505.3,2.88c2.73,1.3,2.65,3.61,2.13,5.25L491.46,54l-15-44.49c-.52-1.42-1.44-5,1.9-6.58V1.56H460.24V2.89c2.21.89,3.94,4.38,4.85,7.07l20,58.87h5.62l20.47-58.75c.86-2.5,3.14-6.47,5.7-7.17V1.56H505.3Z"></path>
    <path class="cls-1" d="M625.19,2.83c2.15,1.37,2.13,5.56,2.13,6.89h0V46.45L595.9,1.69l-.09-.12H582.48V2.83c3.31,2.13,3.3,6,3.3,9.1V60.68c0,1.33,0,5.51-2.13,6.89v1.26h8.63V67.57c-2.15-1.37-2.13-5.56-2.13-6.89v-47l38.7,55.19h2.84V9.71c0-1.33,0-5.51,2.13-6.89V1.57h-8.63Z"></path>
</svg>