<svg version="1.1" xmlns="http://www.w3.org/2000/svg" id="JLCLogo" viewBox="0 0 200.4 66.6" >
	<g>
		<path fill="#000" d="M159.2,44.2l-0.3,0c-0.1,0-0.7,0-1.1-0.8c-1-1.7-1.5-2.2-1.7-2.4c-0.2-0.2,0-0.2,0-0.2c2.2-0.5,2.1-2,2.1-2
		c0-1.9-2.4-1.9-2.4-1.9h-5.6c-0.1,0-0.2,0.1-0.2,0.2v0.3c0,0.1,0.1,0.2,0.2,0.2l0.5,0.1c0.2,0,0.4,0.2,0.4,0.4v5.6
		c0,0.2-0.2,0.4-0.4,0.5l-0.5,0.1c-0.1,0-0.2,0.1-0.2,0.2v0.3c0,0.1,0.1,0.1,0.2,0.1h3.7c0.1,0,0.2-0.1,0.2-0.1v-0.3
		c0-0.1-0.1-0.2-0.2-0.2l-0.5-0.1c-0.2,0-0.4-0.2-0.4-0.5l0-2.3c0-0.2,0.1-0.3,0.3-0.3h0.5c0,0,0.8,0,1.4,1c0,0,0.4,0.8,0.9,1.7
		c0.5,0.9,0.8,1.1,2.2,1.1h0.9c0.1,0,0.1-0.1,0.1-0.1v-0.4C159.4,44.3,159.3,44.2,159.2,44.2z M154.8,40.4h-1.5
		c-0.2,0-0.3-0.1-0.3-0.3v-2.3c0-0.2,0.1-0.3,0.3-0.3h1.5c0,0,1.5,0,1.5,1.4C156.4,40.4,154.8,40.4,154.8,40.4z"/>
		<path fill="#000" d="M146.3,37.8c0-0.2,0.1-0.3,0.3-0.3h0.9c0,0,0.6,0.1,1,0.6l0.3,0.4c0,0.1,0.1,0.1,0.2,0.1h0.4
		c0.1,0,0.2-0.1,0.2-0.1c0,0,0,0,0-0.1l-0.5-1.2c-0.1-0.2-0.3-0.3-0.5-0.3h-6.3c-0.2,0-0.4,0.1-0.5,0.3l-0.5,1.2c0,0,0,0,0,0.1
		c0,0.1,0.1,0.1,0.2,0.1h0.4c0.1,0,0.1-0.1,0.2-0.1l0.3-0.4c0.4-0.5,1-0.6,1-0.6h0.9c0.2,0,0.3,0.1,0.3,0.3v5.8
		c0,0.2-0.2,0.4-0.4,0.5l-0.5,0.1c-0.1,0-0.2,0.1-0.2,0.2v0.3c0,0.1,0.1,0.2,0.2,0.2h3.7c0.1,0,0.2-0.1,0.2-0.2v-0.3
		c0-0.1-0.1-0.2-0.2-0.2l-0.5-0.1c-0.2,0-0.4-0.2-0.4-0.5V37.8z"/>
		<path fill="#000" d="M138.7,38.1c0-0.2,0.2-0.4,0.4-0.5l0.5-0.1c0.1,0,0.2-0.1,0.2-0.2V37c0-0.1-0.1-0.2-0.2-0.2h-3.7
		c-0.1,0-0.1,0.1-0.1,0.2v0.3c0,0.1,0.1,0.2,0.2,0.2l0.5,0.1c0.2,0,0.4,0.2,0.4,0.5v5.6c0,0.2-0.2,0.4-0.4,0.5l-0.5,0.1
		c-0.1,0-0.2,0.1-0.2,0.2v0.3c0,0.1,0.1,0.1,0.1,0.1h5.6c0.2,0,0.4-0.1,0.5-0.3l0.5-1.2c0,0,0,0,0-0.1c0-0.1-0.1-0.1-0.2-0.1H142
		c-0.1,0-0.1,0.1-0.2,0.1l-0.3,0.4c-0.4,0.5-1,0.5-1,0.5H139c-0.2,0-0.3-0.1-0.3-0.3V38.1z"/>
		<path fill="#000" d="M129.4,41.6c0,0-0.2,2.5,2,2.5c2,0,2-2.2,2-2.2v-3.8c0-0.2-0.1-0.4-0.3-0.5l-0.4-0.1c-0.1,0-0.2-0.1-0.2-0.2
		v-0.3c0-0.1,0.1-0.2,0.2-0.2h2.3c0.1,0,0.2,0.1,0.2,0.2v0.3c0,0.1-0.1,0.2-0.2,0.2l-0.4,0.1c-0.2,0-0.3,0.2-0.3,0.5v3.5
		c0,0.4,0,3.2-3.1,3.2c-3.7,0-3.5-3.2-3.5-3.2v-3.6c0-0.2-0.2-0.4-0.4-0.5l-0.5-0.1c-0.1,0-0.2-0.1-0.2-0.2V37
		c0-0.1,0.1-0.2,0.2-0.2h3.5c0.1,0,0.2,0.1,0.2,0.2v0.4c0,0.1-0.1,0.2-0.2,0.2l-0.4,0.1c-0.2,0-0.3,0.2-0.3,0.5V41.6z"/>
		<path fill="#000" d="M123.4,37.2c-0.5-0.3-1.1-0.4-1.8-0.4c-2.2,0-4.1,1.8-4.1,4.1c0,2.3,1.8,4.1,4.1,4.1c2.2,0,4.1-1.8,4.1-4.1
		C125.7,39.2,124.8,37.8,123.4,37.2z M121.7,44.2c-1.4,0-2-1.3-2-3.4c-0.1-2.2,0.4-3.5,1.8-3.5c1.4,0,2,1.2,2,3.4
		C123.7,42.9,123.2,44.2,121.7,44.2z"/>
		<path fill="#000" d="M115.8,42.2c-1.4,2-3.4,1.9-3.4,1.9c-2.2,0.1-3-2.2-3.1-5c-0.1-2.8,0.6-5.1,2.7-5.2c0,0,2.1-0.3,3.4,1.8
		c0,0.1,0.1,0.1,0.2,0.1c0,0,0.1,0,0.1,0l0.5-0.1c0.1,0,0.1-0.1,0.1-0.1c0,0,0,0,0-0.1l-0.7-2.2c0-0.1-0.1-0.1-0.2-0.1h-0.3
		c-0.1,0-0.2,0.1-0.2,0.1c-0.1,0.7-0.7,0.3-0.7,0.3c-0.7-0.4-1.5-0.6-2.3-0.6c-3,0-5.4,2.7-5.4,5.9c0,3.3,2.4,5.9,5.4,5.9
		c0.9,0,1.8-0.2,2.5-0.7c0,0,0.6-0.4,0.7,0.3c0,0.1,0.1,0.1,0.2,0.1h0.3c0.1,0,0.2-0.1,0.2-0.1l0.7-2.2c0,0,0,0,0-0.1
		c0-0.1,0-0.1-0.1-0.1L116,42c0,0-0.1,0-0.1,0C115.8,42,115.8,42.1,115.8,42.2z"/>
		<path fill="#000" d="M100.7,36.8h4c0.2,0,0.4,0.2,0.5,0.3l0.4,1.1c0,0,0,0,0,0.1c0,0.1-0.1,0.1-0.1,0.1h-0.4
		c-0.1,0-0.1-0.1-0.2-0.1l-0.2-0.3c-0.4-0.6-0.9-0.5-0.9-0.5h-2.1c-0.2,0-0.3,0.1-0.3,0.3v1.3c0,0.2,0.1,0.3,0.3,0.3h0.5
		c0.3,0,0.5-0.1,0.6-0.3l0.1-0.3c0-0.1,0.1-0.1,0.2-0.1h0.3c0.1,0,0.2,0.1,0.2,0.1l0.7,2.1c0,0,0,0,0,0.1c0,0.1,0,0.1-0.1,0.1
		l-0.3,0.1c0,0-0.1,0-0.1,0c-0.1,0-0.1-0.1-0.2-0.1l-0.2-0.4c0,0-0.2-0.4-0.7-0.4h-0.9c-0.2,0-0.3,0.1-0.3,0.3v3.4
		c0,0.2,0.1,0.3,0.3,0.3h2.3c0,0,0.6,0,1-0.5l0.3-0.4c0-0.1,0.1-0.1,0.2-0.1h0.4c0.1,0,0.1,0.1,0.1,0.1c0,0,0,0,0,0.1l-0.5,1.2
		c-0.1,0.2-0.3,0.3-0.5,0.3h-6.3c-0.1,0-0.2-0.1-0.2-0.1v-0.3c0-0.1,0.1-0.2,0.2-0.2l0.5-0.1c0.2,0,0.4-0.2,0.4-0.5v-5.6
		c0-0.2-0.2-0.4-0.4-0.5l-0.5-0.1c-0.1,0-0.2-0.1-0.2-0.2V37c0-0.1,0.1-0.2,0.2-0.2H100.7z"/>
		<path fill="#000" d="M94.3,38.1c0-0.2,0.2-0.4,0.4-0.5l0.5-0.1c0.1,0,0.2-0.1,0.2-0.2V37c0-0.1-0.1-0.2-0.2-0.2h-3.7
		c-0.1,0-0.1,0.1-0.1,0.2v0.3c0,0.1,0.1,0.2,0.2,0.2l0.5,0.1c0.2,0,0.4,0.2,0.4,0.5v5.6c0,0.2-0.2,0.4-0.4,0.5l-0.5,0.1
		c-0.1,0-0.2,0.1-0.2,0.2v0.4c0,0.1,0.1,0.1,0.1,0.1h5.6c0.2,0,0.4-0.1,0.5-0.3l0.5-1.2c0,0,0,0,0-0.1c0-0.1-0.1-0.1-0.2-0.1h-0.4
		c-0.1,0-0.1,0.1-0.2,0.1l-0.3,0.4c-0.4,0.5-1,0.5-1,0.5h-1.6c-0.2,0-0.3-0.1-0.3-0.3V38.1z"/>
		<path fill="#000" d="M90.1,40.2c0-0.1-0.1-0.1-0.1-0.1h-3.5c-0.1,0-0.2,0.1-0.2,0.1v0.9c0,0.1,0.1,0.1,0.2,0.1H90
		c0.1,0,0.1-0.1,0.1-0.1V40.2z"/>
		<path fill="#000" d="M85.6,44.2l-0.3,0c-0.1,0-0.7,0-1.1-0.8c-1-1.7-1.5-2.2-1.7-2.4c-0.2-0.2,0-0.2,0-0.2c2.2-0.5,2.1-2,2.1-2
		c0-1.9-2.4-1.9-2.4-1.9h-5.6c-0.1,0-0.2,0.1-0.2,0.2v0.4c0,0.1,0.1,0.2,0.2,0.2l0.5,0.1c0.2,0,0.4,0.2,0.4,0.4v5.6
		c0,0.2-0.2,0.4-0.4,0.5l-0.5,0.1c-0.1,0-0.2,0.1-0.2,0.2v0.4c0,0.1,0.1,0.1,0.2,0.1h3.7c0.1,0,0.2-0.1,0.2-0.1v-0.4
		c0-0.1-0.1-0.2-0.2-0.2l-0.5-0.1c-0.2,0-0.4-0.2-0.4-0.5l0-2.3c0-0.2,0.1-0.3,0.3-0.3h0.5c0,0,0.8,0,1.4,1c0,0,0.4,0.8,0.9,1.7
		c0.5,0.9,0.8,1.1,2.2,1.1l0.9,0c0.1,0,0.1-0.1,0.1-0.1v-0.4C85.7,44.3,85.7,44.2,85.6,44.2z M81.2,40.4h-1.5
		c-0.2,0-0.3-0.1-0.3-0.3v-2.3c0-0.2,0.1-0.3,0.3-0.3h1.5c0,0,1.5,0,1.5,1.4C82.7,40.3,81.2,40.4,81.2,40.4z"/>
		<path fill="#000" d="M70.3,36.8h4c0.2,0,0.4,0.2,0.5,0.3l0.4,1.1c0,0,0,0,0,0.1c0,0.1-0.1,0.1-0.1,0.1h-0.4c-0.1,0-0.1-0.1-0.2-0.1
		l-0.2-0.3c-0.4-0.6-0.9-0.5-0.9-0.5h-2.1c-0.2,0-0.3,0.1-0.3,0.3v1.3c0,0.2,0.1,0.3,0.3,0.3h0.5c0.3,0,0.5-0.1,0.6-0.3l0.1-0.3
		c0-0.1,0.1-0.1,0.2-0.1h0.3c0.1,0,0.2,0.1,0.2,0.1l0.7,2.1c0,0,0,0,0,0.1c0,0.1,0,0.1-0.1,0.1L73.4,41c0,0-0.1,0-0.1,0
		c-0.1,0-0.1-0.1-0.2-0.1l-0.2-0.4c0,0-0.2-0.4-0.7-0.4h-0.9c-0.2,0-0.3,0.1-0.3,0.3v3.4c0,0.2,0.1,0.3,0.3,0.3h2.3c0,0,0.6,0,1-0.5
		l0.3-0.4c0-0.1,0.1-0.1,0.2-0.1h0.4c0.1,0,0.2,0.1,0.2,0.1c0,0,0,0,0,0.1L75,44.6c-0.1,0.2-0.3,0.3-0.5,0.3h-6.3
		c-0.1,0-0.1-0.1-0.1-0.1v-0.3c0-0.1,0.1-0.2,0.2-0.2l0.5-0.1c0.2,0,0.4-0.2,0.4-0.5v-5.6c0-0.2-0.2-0.4-0.4-0.5l-0.5-0.1
		c-0.1,0-0.2-0.1-0.2-0.2V37c0-0.1,0.1-0.2,0.1-0.2H70.3z"/>
		<path fill="#000" d="M64.8,42.4c0-0.2-0.2-0.4-0.4-0.5L64,41.9c-0.1,0-0.2-0.1-0.2-0.2v-0.2c0-0.1,0.1-0.1,0.2-0.1h3.4
		c0.1,0,0.2,0.1,0.2,0.1v0.2c0,0.1-0.1,0.2-0.2,0.2l-0.2,0c-0.2,0-0.4,0.2-0.4,0.5v1.1c0,0.2-0.1,0.3-0.3,0.4c-1.9,1.2-3.2,1-3.2,1
		c-2.2,0-4.1-1.8-4.1-4.1c0-2.3,1.8-4.1,4.1-4.1c0.6,0,1.2,0.1,1.8,0.4c0,0,0.3,0.2,0.5-0.2c0-0.1,0.1-0.1,0.2-0.1h0.2
		c0.1,0,0.2,0.1,0.2,0.1l0.5,1.8c0,0,0,0,0,0.1c0,0.1-0.1,0.1-0.1,0.1L65.9,39c0,0-0.1,0-0.1,0c-0.1,0-0.1-0.1-0.2-0.1l-0.1-0.2
		c-0.8-1.6-2.5-1.4-2.5-1.4c-1.4,0-1.9,1.4-1.9,3.5c0.1,2.1,0.6,3.5,2,3.4c0,0,0.9,0,1.4-0.6c0.1-0.1,0.1-0.2,0.1-0.2V42.4z"/>
		<path fill="#000" d="M51.2,44.9c-0.1,0-0.1-0.1-0.1-0.1v-0.3c0-0.1,0.1-0.2,0.2-0.2l0.5-0.1c0.2,0,0.4-0.2,0.4-0.5v-5.6
		c0-0.2-0.2-0.4-0.4-0.5l-0.5-0.1c-0.1,0-0.2-0.1-0.2-0.2V37c0-0.1,0.1-0.2,0.1-0.2h6.1c0.2,0,0.4,0.2,0.5,0.3l0.4,1.1
		c0,0,0,0,0,0.1c0,0.1-0.1,0.1-0.1,0.1h-0.4c-0.1,0-0.1-0.1-0.2-0.1l-0.2-0.3c-0.4-0.6-0.9-0.5-0.9-0.5h-2.1c-0.2,0-0.3,0.1-0.3,0.3
		v1.2c0,0.2,0.1,0.3,0.3,0.3h0.5c0.3,0,0.5-0.1,0.6-0.3l0.1-0.3c0-0.1,0.1-0.1,0.2-0.1h0.3c0.1,0,0.2,0.1,0.2,0.1l0.7,2.1
		c0,0,0,0,0,0.1c0,0.1,0,0.1-0.1,0.1L56.4,41c0,0-0.1,0-0.1,0c-0.1,0-0.1-0.1-0.2-0.1l-0.2-0.4c0,0-0.2-0.4-0.7-0.4h-0.9
		c-0.2,0-0.3,0.1-0.3,0.3v3.4c0,0.2,0.1,0.3,0.3,0.3h2.3c0,0,0.6,0,1-0.5l0.3-0.4c0-0.1,0.1-0.1,0.2-0.1h0.4c0.1,0,0.1,0.1,0.1,0.1
		c0,0,0,0,0,0.1L58,44.6c-0.1,0.2-0.3,0.3-0.5,0.3H51.2z"/>
		<path fill="#000" d="M50.3,44.2l-0.1-0.1c0,0-0.4-0.1-0.6-0.7l-2.2-6.3c0,0-0.1-0.3-0.5-0.3h-1.6c-0.4,0-0.5,0.3-0.5,0.3l-2.4,6.3
		c-0.3,0.7-0.8,0.7-0.8,0.7l-0.2,0c-0.1,0-0.2,0.1-0.2,0.2v0.4c0,0.1,0.1,0.1,0.1,0.1h2.5c0.1,0,0.2-0.1,0.2-0.1v-0.4
		c0-0.1-0.1-0.2-0.2-0.2l-0.1,0c-0.2,0-0.4-0.2-0.4-0.5c0-0.1,0-0.1,0-0.2l0.2-0.5c0,0,0.1-0.2,0.4-0.2h3c0.3,0,0.4,0.2,0.4,0.2
		l0.2,0.5c0,0,0,0.1,0,0.2c0,0.2-0.2,0.4-0.4,0.5l-0.1,0c-0.1,0-0.2,0.1-0.2,0.2v0.4c0,0.1,0.1,0.1,0.2,0.1h3.2
		c0.1,0,0.2-0.1,0.2-0.1v-0.4C50.4,44.3,50.3,44.2,50.3,44.2z M46.7,42.1h-2.5c-0.3,0-0.2-0.2-0.2-0.2l1.3-3.3c0,0,0.1-0.3,0.2-0.3
		c0.1,0,0.2,0.3,0.2,0.3l1.1,3.3C46.9,41.9,47,42.1,46.7,42.1z"/>
		<path fill="#000" d="M32.5,44.2c-0.9-0.5-1-1-0.8-1.3c0.2-0.3,0.6-0.5,1.5,0c0.8,0.4,1.5,1.2,1.9,1.7
		C34.6,44.7,33.4,44.7,32.5,44.2z M164.7,44.9c2.1,0,3.4-0.1,4.6-0.9c1.5-0.9,2.1-2.4,1.5-3.3c-0.5-0.9-1.9-1-3.3-0.1
		c0,0-1.6,0.9-3.4,3.6l0,0h-1.2c-0.2,0-0.3-0.1-0.3-0.3v-3.4c0-0.2,0.1-0.3,0.3-0.3h0.9c0.5,0,0.7,0.4,0.7,0.4l0.2,0.4
		c0,0.1,0.1,0.1,0.2,0.1c0,0,0.1,0,0.1,0l0.3-0.1c0.1,0,0.1-0.1,0.1-0.1c0,0,0,0,0-0.1l-0.7-2.1c0-0.1-0.1-0.1-0.2-0.1h-0.3
		c-0.1,0-0.2,0.1-0.2,0.1l-0.1,0.3c-0.1,0.2-0.2,0.3-0.6,0.3h-0.5c-0.2,0-0.3-0.1-0.3-0.3v-1.3c0-0.2,0.1-0.3,0.3-0.3h2.1
		c0,0,0.6,0,0.9,0.5l0.2,0.3c0,0.1,0.1,0.1,0.2,0.1h0.4c0.1,0,0.1-0.1,0.1-0.1c0,0,0,0,0-0.1l-0.4-1.1c-0.1-0.2-0.3-0.3-0.5-0.3h-4
		h-2.1c-0.1,0-0.2,0.1-0.2,0.2v0.4c0,0.1,0.1,0.2,0.2,0.2l0.5,0.1c0.2,0,0.4,0.2,0.4,0.5v5.6c0,0.2-0.2,0.4-0.4,0.5l-0.5,0.1
		c-0.1,0-0.2,0.1-0.2,0.2v0.3c0,0.1,0.1,0.1,0.2,0.1l3,0h0.7c-1.8,2.4-3.6,3.8-6.4,4H42.5c-2.8-0.2-4-1.1-5.7-3.5l0,0
		c3.8-0.8,4.1-3.7,4.3-5.7c0.2-1.7,0.1-3.8,0.1-3.8v-1.1c0-0.3,0.2-0.5,0.4-0.5l0.5-0.1c0.1,0,0.2-0.1,0.2-0.2v-0.5
		c0-0.1-0.1-0.2-0.2-0.2h-4.5c-0.1,0-0.2,0.1-0.2,0.2V34c0,0.1,0.1,0.2,0.2,0.2l0.5,0.1c0.2,0,0.4,0.2,0.4,0.5v5
		c0,0.8,0.1,2.9-1.1,3.9c-0.4,0.4-0.9,0.6-1.4,0.7l0,0c-1.8-2.5-3.3-3.3-3.3-3.3c-1.4-0.9-2.8-0.8-3.3,0.1c-0.5,0.9,0,2.3,1.5,3.3
		c1.2,0.8,3.1,1.1,4.6,1l0,0c0,0,1.2,1.7,1.7,2.4c0.5,0.7,1.6,2.7,6.4,2.7h111.8c4.9,0,6.7-2.5,7.2-3.2
		C163.2,46.9,164.7,44.9,164.7,44.9z M165.3,44.1c0.4-0.5,1.1-1.3,1.8-1.7c0.9-0.5,1.3-0.3,1.5,0c0.2,0.3,0,0.9-0.9,1.3
		C167.7,43.7,167,44.1,165.3,44.1z"/>
		<path fill="#000" d="M112.2,26.6c-2.7,1.2-5.6,2-8.6,2.3v-9.6h3.6L105,16h-3.9l-0.9,1.3L99.3,16h-3.9l-2.2,3.3h3.6v9.6
		c-3-0.3-5.9-1.1-8.6-2.3l-2.7,3.9c1.2,0.5,2.4,1,3.6,1.4l1-1.5c3.1,1,6.4,1.5,9.7,1.5v0c0.1,0,0.3,0,0.4,0c3.5,0,6.9-0.5,10-1.6
		l1,1.5c1.2-0.4,2.4-0.9,3.6-1.4L112.2,26.6z M99.9,31.3c-3.5,0-6.9-0.6-10-1.7l-1,1.5c-0.8-0.3-1.5-0.6-2.3-0.9l1.9-2.7
		c2.8,1.2,5.9,1.9,9.1,2.2V18.6h-3l1.3-1.9H99l0.9,1.3V31.3z M110.6,29.6c-3.2,1.1-6.5,1.7-10,1.7V18l0.9-1.3h3.2l1.3,1.9h-3v11.1
		c3.2-0.3,6.2-1,9.1-2.2l1.9,2.7c-0.7,0.3-1.5,0.6-2.3,0.9L110.6,29.6z"/>
	</g>
</svg>
