<?xml version="1.0" encoding="utf-8"?>
<!-- Generator: Adobe Illustrator 16.0.0, SVG Export Plug-In . SVG Version: 6.00 Build 0)  -->
<!DOCTYPE svg PUBLIC "-//W3C//DTD SVG 1.1//EN" "http://www.w3.org/Graphics/SVG/1.1/DTD/svg11.dtd">
<svg version="1.1" id="Calque_1" xmlns="http://www.w3.org/2000/svg" xmlns:xlink="http://www.w3.org/1999/xlink" x="0px" y="0px"
	 width="79px" height="68px" viewBox="0 0 79 68" enable-background="new 0 0 79 68" xml:space="preserve">
<g>
	<defs>
		<rect id="SVGID_1_" x="-108" y="-390.89" width="595.276" height="841.89"/>
	</defs>
	<clipPath id="SVGID_2_">
		<use xlink:href="#SVGID_1_"  overflow="visible"/>
	</clipPath>
	<path display="none" clip-path="url(#SVGID_2_)" d="M200.331,41.426c-7.023,1.576-16.061,2.044-22.583-0.963
		c-5.567-2.438-9.008-8.255-9.717-13.948c-0.74-6.989,1.892-13.114,7.481-17.228c6.538-4.674,16.896-4.522,24.015-1.269v7.113
		c-5.386-2.473-13.489-3.929-18.655,0c-3.713,2.85-4.863,7.364-3.933,11.881c0.747,3.556,3.805,6.774,7.211,7.948
		c2.416,0.771,5.379,1.022,8.07,0.683v-5.798l-3.553,0.009v-6.985h11.659v18.557H200.331z"/>
	<polygon display="none" clip-path="url(#SVGID_2_)" points="114.143,41.796 114.143,12.58 127.044,12.58 127.044,5.786 
		92.089,5.786 92.089,12.58 104.986,12.58 104.986,41.796 	"/>
	<path display="none" clip-path="url(#SVGID_2_)" d="M140.204,28.431l5.165-13.424l5.586,13.424H140.204z M150.435,6.1h-10.474
		l-14.695,35.909h9.651l2.76-7.049h16.058l2.944,7.049h9.648L150.435,6.1z"/>
	<polygon display="none" clip-path="url(#SVGID_2_)" points="235.544,21.484 215.189,21.484 215.191,6.046 209.729,6.046 
		209.729,41.89 215.191,41.89 215.189,26.312 235.544,26.312 235.525,41.89 241.003,41.89 241.003,6.046 235.525,6.046 	"/>
	<path display="none" clip-path="url(#SVGID_2_)" d="M301.368,31.786c-0.378,0.927-2.767,6.071-9.112,6.071
		c-6.36,0-7.31-4.922-7.31-7.854V10.859h-5.456l-0.007,18.401c0,12.419,9.352,13.383,12.218,13.383c4.718,0,7.87-2.024,9.67-3.699
		l-0.004,2.961h5.474V10.859h-5.467L301.368,31.786z"/>
	<path display="none" clip-path="url(#SVGID_2_)" d="M368.97,14.128c-0.142-0.159-3.512-3.91-7.872-3.91
		c-3.843,0-7.587,3.692-9.733,6.272l0.005-5.721h-5.473v31.183h5.465l0.007-18.614c1.417-2.376,5.345-7.808,8.614-7.808
		c2.738,0,5.617,3.093,5.646,3.124L368.97,14.128z"/>
	<path display="none" clip-path="url(#SVGID_2_)" d="M260.276,10.218c-8.557,0-15.009,6.378-15.009,16.093
		c0,6.679,4.519,16.27,16.643,16.27c7.68,0,12.347-4.205,12.542-4.383l0.324-0.297l-0.001-6.37l-1.691,1.613
		c-0.046,0.044-4.64,4.363-10.782,4.363c-6.689,0-11.361-3.899-11.361-11.108v-0.063h24.42v-1
		C275.36,17.66,270.639,10.218,260.276,10.218 M251.718,21.503c1.396-4.372,4.521-6.123,8.542-6.123
		c6.527,0,8.354,3.931,8.852,6.123H251.718z"/>
	<path display="none" clip-path="url(#SVGID_2_)" d="M326.389,10.218c-8.556,0-15.008,6.378-15.008,16.093
		c0,6.679,4.519,16.27,16.643,16.27c7.68,0,12.347-4.205,12.542-4.383l0.323-0.297l-0.001-6.37l-1.69,1.613
		c-0.046,0.044-4.641,4.363-10.782,4.363c-6.69,0-11.362-3.899-11.362-11.108v-0.063h24.42v-1
		C341.473,17.66,336.752,10.218,326.389,10.218 M317.831,21.503c1.396-4.372,4.521-6.123,8.542-6.123
		c6.527,0,8.354,3.931,8.851,6.123H317.831z"/>
	<path display="none" clip-path="url(#SVGID_2_)" d="M106.8,58.758l-1.046-0.635c-0.655-0.402-1.122-0.797-1.397-1.186
		c-0.278-0.387-0.419-0.834-0.419-1.339c0-0.758,0.263-1.372,0.789-1.847c0.523-0.473,1.203-0.71,2.044-0.71
		c0.801,0,1.535,0.228,2.207,0.68v1.553c-0.693-0.661-1.437-0.991-2.233-0.991c-0.447,0-0.815,0.104-1.103,0.311
		c-0.289,0.208-0.434,0.472-0.434,0.796c0,0.288,0.108,0.558,0.321,0.807c0.214,0.251,0.555,0.517,1.027,0.792l1.047,0.625
		c1.165,0.704,1.75,1.597,1.75,2.682c0,0.77-0.256,1.397-0.772,1.879c-0.513,0.482-1.185,0.723-2.008,0.723
		c-0.947,0-1.809-0.294-2.589-0.882v-1.742c0.744,0.945,1.599,1.416,2.577,1.416c0.43,0,0.79-0.12,1.076-0.36
		c0.286-0.24,0.431-0.541,0.431-0.905C108.067,59.837,107.642,59.281,106.8,58.758"/>
	<polygon display="none" clip-path="url(#SVGID_2_)" points="124.668,53.184 126.041,53.184 122.167,62.834 121.849,62.834 
		118.72,55.019 115.552,62.834 115.229,62.834 111.381,53.184 112.768,53.184 115.407,59.808 118.079,53.184 119.393,53.184 
		122.046,59.808 	"/>
	<rect x="128.697" y="53.183" display="none" clip-path="url(#SVGID_2_)" width="1.38" height="9.604"/>
	<path display="none" clip-path="url(#SVGID_2_)" d="M136.169,58.758l-1.044-0.635c-0.655-0.402-1.124-0.797-1.4-1.186
		c-0.277-0.387-0.414-0.834-0.414-1.339c0-0.758,0.259-1.372,0.785-1.847c0.524-0.473,1.207-0.71,2.044-0.71
		c0.803,0,1.537,0.228,2.207,0.68v1.553c-0.692-0.661-1.433-0.991-2.23-0.991c-0.45,0-0.816,0.104-1.105,0.311
		c-0.288,0.208-0.432,0.472-0.432,0.796c0,0.288,0.105,0.558,0.319,0.807c0.215,0.251,0.557,0.517,1.027,0.792l1.047,0.625
		c1.165,0.704,1.75,1.597,1.75,2.682c0,0.77-0.257,1.397-0.771,1.879c-0.515,0.482-1.185,0.723-2.009,0.723
		c-0.944,0-1.808-0.294-2.586-0.882v-1.742c0.741,0.945,1.601,1.416,2.575,1.416c0.431,0,0.789-0.12,1.075-0.36
		c0.286-0.24,0.43-0.541,0.43-0.905C137.437,59.837,137.014,59.281,136.169,58.758"/>
	<path display="none" clip-path="url(#SVGID_2_)" d="M144.194,58.758l-1.044-0.635c-0.658-0.402-1.123-0.797-1.4-1.186
		c-0.277-0.387-0.416-0.834-0.416-1.339c0-0.758,0.263-1.372,0.786-1.847c0.525-0.473,1.205-0.71,2.046-0.71
		c0.801,0,1.537,0.228,2.203,0.68v1.553c-0.689-0.661-1.43-0.991-2.228-0.991c-0.447,0-0.817,0.104-1.105,0.311
		c-0.286,0.208-0.432,0.472-0.432,0.796c0,0.288,0.109,0.558,0.322,0.807c0.214,0.251,0.555,0.517,1.025,0.792l1.045,0.625
		c1.17,0.704,1.75,1.597,1.75,2.682c0,0.77-0.256,1.397-0.771,1.879c-0.516,0.482-1.183,0.723-2.004,0.723
		c-0.95,0-1.812-0.294-2.591-0.882v-1.742c0.741,0.945,1.601,1.416,2.578,1.416c0.429,0,0.787-0.12,1.074-0.36
		c0.286-0.24,0.427-0.541,0.427-0.905C145.459,59.837,145.04,59.281,144.194,58.758"/>
	<path display="none" clip-path="url(#SVGID_2_)" d="M158.385,53.137h0.967l4.3,9.65h-1.406l-1.278-2.84h-4.09l-1.198,2.84h-1.411
		L158.385,53.137z M160.418,58.724l-1.56-3.476l-1.448,3.476H160.418z"/>
	<polygon display="none" clip-path="url(#SVGID_2_)" points="171.231,53.184 172.613,53.184 168.545,62.834 168.223,62.834 
		164.108,53.184 165.49,53.184 168.367,59.935 	"/>
	<path display="none" clip-path="url(#SVGID_2_)" d="M177.18,53.137h0.966l4.302,9.65h-1.41l-1.276-2.84h-4.091l-1.195,2.84h-1.413
		L177.18,53.137z M179.213,58.724l-1.56-3.476l-1.448,3.476H179.213z"/>
	<polygon display="none" clip-path="url(#SVGID_2_)" points="192.707,53.184 194.01,53.184 194.01,62.787 192.833,62.787 
		186.415,55.392 186.415,62.787 185.129,62.787 185.129,53.184 186.237,53.184 192.707,60.644 	"/>
	<polygon display="none" clip-path="url(#SVGID_2_)" points="196.835,53.184 204.854,53.184 204.854,54.407 201.512,54.407 
		201.512,62.787 200.128,62.787 200.128,54.407 196.835,54.407 	"/>
	<rect x="204.853" y="59.006" display="none" clip-path="url(#SVGID_2_)" width="3.422" height="1.334"/>
	<path display="none" clip-path="url(#SVGID_2_)" d="M216.66,58.048h3.235v4.081c-1.184,0.514-2.355,0.768-3.521,0.768
		c-1.589,0-2.858-0.465-3.811-1.394c-0.951-0.931-1.425-2.078-1.425-3.439c0-1.438,0.491-2.635,1.477-3.589
		c0.987-0.955,2.223-1.434,3.707-1.434c0.542,0,1.053,0.061,1.539,0.181c0.487,0.117,1.102,0.337,1.844,0.654v1.396
		c-1.145-0.668-2.282-1.006-3.408-1.006c-1.052,0-1.935,0.359-2.652,1.075c-0.719,0.719-1.079,1.599-1.079,2.641
		c0,1.095,0.36,1.989,1.077,2.683c0.718,0.693,1.642,1.04,2.772,1.04c0.549,0,1.205-0.125,1.967-0.378l0.131-0.042v-2.011h-1.854
		V58.048z"/>
	<path display="none" clip-path="url(#SVGID_2_)" d="M225.971,53.137h0.965l4.303,9.65h-1.409l-1.277-2.84h-4.091l-1.196,2.84
		h-1.412L225.971,53.137z M228.003,58.724l-1.561-3.476l-1.449,3.476H228.003z"/>
	<path display="none" clip-path="url(#SVGID_2_)" d="M233.354,62.787v-9.604h2.403c0.972,0,1.744,0.241,2.315,0.723
		c0.568,0.482,0.852,1.132,0.852,1.955c0,0.56-0.139,1.044-0.42,1.451c-0.28,0.408-0.682,0.716-1.205,0.915
		c0.31,0.202,0.613,0.477,0.91,0.825c0.295,0.348,0.708,0.955,1.24,1.818c0.334,0.547,0.603,0.955,0.804,1.23l0.511,0.686h-1.636
		l-0.421-0.632c-0.012-0.022-0.041-0.062-0.08-0.117l-0.269-0.376l-0.427-0.7l-0.457-0.749c-0.287-0.396-0.549-0.709-0.781-0.94
		c-0.24-0.234-0.449-0.403-0.641-0.506c-0.189-0.101-0.511-0.153-0.959-0.153h-0.356v4.174H233.354z M235.146,54.345h-0.408v3.045
		h0.519c0.692,0,1.169-0.06,1.425-0.18c0.258-0.119,0.458-0.302,0.604-0.543c0.144-0.24,0.215-0.517,0.215-0.825
		c0-0.301-0.08-0.577-0.24-0.825c-0.159-0.245-0.386-0.418-0.673-0.521C236.296,54.396,235.815,54.345,235.146,54.345"/>
	<path display="none" clip-path="url(#SVGID_2_)" d="M242.829,62.787v-9.604h3.245c1.31,0,2.347,0.195,3.109,0.589
		c0.762,0.391,1.368,0.969,1.818,1.731c0.451,0.762,0.679,1.594,0.679,2.491c0,0.644-0.126,1.26-0.375,1.845
		c-0.249,0.588-0.602,1.105-1.062,1.551c-0.468,0.459-1.013,0.806-1.635,1.041c-0.361,0.14-0.696,0.235-0.998,0.282
		c-0.304,0.051-0.884,0.073-1.737,0.073H242.829z M245.93,54.407h-1.723v7.155h1.765c0.691,0,1.225-0.045,1.604-0.141
		c0.383-0.094,0.702-0.214,0.954-0.357c0.254-0.146,0.487-0.323,0.699-0.534c0.682-0.69,1.021-1.559,1.021-2.611
		c0-1.032-0.35-1.875-1.047-2.526c-0.258-0.243-0.551-0.443-0.886-0.6s-0.649-0.26-0.947-0.311
		C247.071,54.433,246.592,54.407,245.93,54.407"/>
	<polygon display="none" clip-path="url(#SVGID_2_)" points="254.965,53.184 260.409,53.184 260.409,54.407 256.343,54.407 
		256.343,57.342 260.268,57.342 260.268,58.565 256.343,58.565 256.343,61.563 260.535,61.563 260.535,62.787 254.965,62.787 	"/>
	<path display="none" clip-path="url(#SVGID_2_)" d="M271.461,58.758l-1.047-0.635c-0.656-0.402-1.12-0.797-1.4-1.186
		c-0.277-0.387-0.416-0.834-0.416-1.339c0-0.758,0.265-1.372,0.789-1.847c0.524-0.473,1.205-0.71,2.043-0.71
		c0.801,0,1.539,0.228,2.207,0.68v1.553c-0.691-0.661-1.433-0.991-2.23-0.991c-0.447,0-0.815,0.104-1.104,0.311
		c-0.288,0.208-0.432,0.472-0.432,0.796c0,0.288,0.105,0.558,0.321,0.807c0.211,0.251,0.551,0.517,1.025,0.792l1.045,0.625
		c1.169,0.704,1.751,1.597,1.751,2.682c0,0.77-0.256,1.397-0.772,1.879c-0.514,0.482-1.185,0.723-2.008,0.723
		c-0.946,0-1.809-0.294-2.587-0.882v-1.742c0.742,0.945,1.602,1.416,2.576,1.416c0.428,0,0.788-0.12,1.076-0.36
		c0.287-0.24,0.429-0.541,0.429-0.905C272.727,59.837,272.305,59.281,271.461,58.758"/>
	<rect x="277.11" y="53.183" display="none" clip-path="url(#SVGID_2_)" width="1.382" height="9.604"/>
	<polygon display="none" clip-path="url(#SVGID_2_)" points="289.82,53.184 291.119,53.184 291.119,62.787 289.942,62.787 
		283.524,55.392 283.524,62.787 282.239,62.787 282.239,53.184 283.348,53.184 289.82,60.644 	"/>
	<path display="none" clip-path="url(#SVGID_2_)" d="M303.047,60.56v1.507c-1.008,0.554-2.171,0.83-3.492,0.83
		c-1.073,0-1.981-0.214-2.727-0.647c-0.747-0.432-1.337-1.025-1.771-1.783c-0.438-0.757-0.654-1.576-0.654-2.458
		c0-1.4,0.496-2.578,1.492-3.533c0.995-0.955,2.226-1.434,3.684-1.434c1.009,0,2.128,0.265,3.36,0.785v1.477
		c-1.12-0.639-2.217-0.958-3.288-0.958c-1.097,0-2.012,0.348-2.733,1.043c-0.726,0.695-1.088,1.567-1.088,2.615
		c0,1.056,0.356,1.925,1.071,2.603c0.713,0.681,1.627,1.021,2.74,1.021C300.804,61.626,301.94,61.271,303.047,60.56"/>
	<polygon display="none" clip-path="url(#SVGID_2_)" points="306.308,53.184 311.752,53.184 311.752,54.407 307.689,54.407 
		307.689,57.342 311.612,57.342 311.612,58.565 307.689,58.565 307.689,61.563 311.879,61.563 311.879,62.787 306.308,62.787 	"/>
	<rect x="322.201" y="53.183" display="none" clip-path="url(#SVGID_2_)" width="1.38" height="9.604"/>
	<path display="none" clip-path="url(#SVGID_2_)" d="M328.652,55.743c0-0.751,0.281-1.388,0.846-1.915
		c0.563-0.521,1.254-0.787,2.069-0.787c0.805,0,1.479,0.262,2.03,0.781c0.556,0.521,0.827,1.161,0.827,1.921
		c0,0.856-0.395,1.565-1.19,2.124c0.89,0.517,1.334,1.275,1.334,2.276c0,0.798-0.287,1.455-0.866,1.974
		c-0.577,0.521-1.307,0.779-2.188,0.779c-0.87,0-1.604-0.266-2.193-0.795c-0.59-0.532-0.886-1.189-0.886-1.973
		c0-0.978,0.449-1.73,1.354-2.262c-0.404-0.33-0.697-0.659-0.872-0.987C328.741,56.555,328.652,56.174,328.652,55.743
		 M333.187,60.204v-0.137c0-0.442-0.156-0.804-0.473-1.082c-0.313-0.279-0.724-0.42-1.227-0.42c-0.492,0-0.896,0.143-1.206,0.423
		c-0.311,0.283-0.469,0.646-0.469,1.091c0,0.448,0.16,0.813,0.479,1.093c0.318,0.283,0.728,0.424,1.235,0.424
		c0.484,0,0.884-0.129,1.193-0.389C333.034,60.95,333.187,60.616,333.187,60.204 M333.063,55.789c0-0.42-0.145-0.765-0.431-1.038
		c-0.288-0.27-0.651-0.406-1.092-0.406c-0.445,0-0.81,0.135-1.096,0.399c-0.284,0.269-0.426,0.611-0.426,1.03
		c0,0.399,0.148,0.744,0.451,1.031c0.301,0.283,0.661,0.427,1.083,0.427c0.42,0,0.774-0.141,1.068-0.425
		C332.917,56.523,333.063,56.185,333.063,55.789"/>
	<path display="none" clip-path="url(#SVGID_2_)" d="M340.914,53.138l0.138-0.096l0.832,1.052c-0.734,0.476-1.344,0.992-1.826,1.555
		c-0.484,0.563-0.856,1.223-1.119,1.981c0.508-0.265,1.017-0.397,1.522-0.397c0.758,0,1.395,0.268,1.914,0.805
		c0.521,0.538,0.778,1.195,0.778,1.975c0,0.805-0.282,1.485-0.848,2.047c-0.563,0.56-1.249,0.838-2.054,0.838
		c-0.905,0-1.638-0.317-2.192-0.952c-0.56-0.637-0.837-1.47-0.837-2.497c0-0.771,0.143-1.539,0.432-2.303
		c0.286-0.765,0.698-1.481,1.234-2.149C339.428,54.327,340.103,53.708,340.914,53.138 M338.646,59.053
		c-0.04,0.216-0.058,0.454-0.058,0.722c0,0.54,0.155,0.982,0.473,1.33c0.313,0.349,0.716,0.521,1.206,0.521
		c0.442,0,0.807-0.147,1.093-0.447c0.286-0.296,0.428-0.671,0.428-1.124c0-0.462-0.15-0.837-0.453-1.122
		c-0.309-0.284-0.712-0.43-1.213-0.43c-0.255,0-0.486,0.039-0.694,0.118C339.218,58.7,338.954,58.842,338.646,59.053"/>
	<path display="none" clip-path="url(#SVGID_2_)" d="M348.791,53.042c0.877,0,1.607,0.463,2.181,1.388s0.861,2.099,0.861,3.522
		c0,1.459-0.288,2.646-0.861,3.56s-1.319,1.37-2.234,1.37c-0.932,0-1.68-0.447-2.242-1.344c-0.563-0.895-0.843-2.081-0.843-3.559
		c0-1.46,0.29-2.647,0.871-3.563C347.107,53.5,347.861,53.042,348.791,53.042 M348.802,54.345h-0.066
		c-0.527,0-0.947,0.325-1.254,0.975c-0.311,0.65-0.465,1.529-0.465,2.641c0,1.14,0.152,2.032,0.453,2.68
		c0.302,0.646,0.718,0.97,1.25,0.97c0.531,0,0.948-0.323,1.256-0.97c0.311-0.647,0.462-1.527,0.462-2.639
		c0-1.115-0.148-2.005-0.443-2.666C349.699,54.676,349.302,54.345,348.802,54.345"/>
	<polygon clip-path="url(#SVGID_2_)" fill-rule="evenodd" clip-rule="evenodd" points="7.467,43.955 7.466,5.787 73.491,5.786 
		73.491,43.958 40.483,62.897 	"/>
	<polygon clip-path="url(#SVGID_2_)" fill="#FFFFFF" points="9.197,7.463 9.134,7.463 9.132,42.979 40.453,60.984 40.468,60.992 
		40.512,60.992 71.776,42.996 71.808,42.979 71.808,7.482 	"/>
	
		<rect x="10.871" y="9.138" clip-path="url(#SVGID_2_)" fill-rule="evenodd" clip-rule="evenodd" fill="#008D5C" width="59.199" height="19.228"/>
	<polygon clip-path="url(#SVGID_2_)" fill-rule="evenodd" clip-rule="evenodd" fill="#ED1B2F" points="10.871,30.046 10.871,41.992 
		40.484,59.002 70.069,42 70.069,30.046 	"/>
	<polygon clip-path="url(#SVGID_2_)" fill-rule="evenodd" clip-rule="evenodd" fill="#FFFFFF" points="25.315,26.104 25.315,14.499 
		31.46,14.499 31.46,11.408 14.809,11.408 14.809,14.499 20.954,14.499 20.954,26.104 	"/>
	<path clip-path="url(#SVGID_2_)" fill-rule="evenodd" clip-rule="evenodd" fill="#FFFFFF" d="M65.419,25.83
		c-3.345,0.646-7.648,0.836-10.757-0.393c-2.653-1.001-4.288-3.383-4.627-5.714c-0.354-2.864,0.899-5.373,3.566-7.058
		c3.109-1.914,8.046-1.85,11.435-0.52v3.196c-2.564-1.014-6.425-1.891-8.886-0.281c-1.768,1.165-2.313,3.015-1.871,4.865
		c0.353,1.457,1.812,2.775,3.433,3.257c1.15,0.316,2.563,0.418,3.845,0.278v-2.374l-1.693,0.005v-2.862h5.551L65.419,25.83z"/>
	<path clip-path="url(#SVGID_2_)" fill-rule="evenodd" clip-rule="evenodd" fill="#FFFFFF" d="M35.662,23.217l-1.468,2.885h-4.446
		l7.221-14.693h4.987l7.354,14.693h-4.459l-1.543-2.885H35.662z M39.509,15.054l-2.644,5.173h5.121L39.509,15.054z"/>
	<path clip-path="url(#SVGID_2_)" fill="#FFFFFF" d="M45.311,53.277L45.31,32.333c0-0.06-0.049-0.109-0.11-0.109h-2.135
		c-0.06,0-0.11,0.05-0.11,0.109V52l-2.472,1.352L38,52V32.333c0-0.06-0.05-0.109-0.11-0.109h-2.137
		c-0.029,0-0.057,0.012-0.078,0.031c-0.02,0.021-0.032,0.05-0.032,0.078l0.001,20.944c0,0.039,0.021,0.076,0.055,0.095l4.727,2.713
		c0.033,0.02,0.075,0.02,0.11,0l4.719-2.712C45.29,53.354,45.311,53.316,45.311,53.277"/>
	<path clip-path="url(#SVGID_2_)" fill="#FFFFFF" d="M32.184,51.357c0.034,0.019,0.071,0.019,0.102,0
		c0.033-0.019,0.054-0.056,0.054-0.096v-2.269c0-0.041-0.022-0.079-0.056-0.098l-4.527-2.47v-5.48l4.063,1.039
		c0.034-0.002,0.08-0.051,0.08-0.113l0.001-2.237c0-0.042-0.05-0.093-0.105-0.105l-4.039-0.896v-4.352h4.481
		c0.057,0,0.104-0.049,0.104-0.109v-1.839c0-0.061-0.047-0.109-0.104-0.109h-6.651c-0.057,0-0.104,0.049-0.104,0.109v15.098
		c0,0.041,0.021,0.078,0.054,0.097L32.184,51.357z"/>
	<path clip-path="url(#SVGID_2_)" fill="#FFFFFF" d="M55.933,47.169v-2.047c0-0.038-0.021-0.075-0.054-0.095
		c-0.033-0.021-0.076-0.021-0.108-0.002l-4.442,2.426v-6.028l4.139-1.059c0.049-0.012,0.083-0.056,0.083-0.107v-2.003
		c0-0.033-0.015-0.065-0.042-0.086c-0.019-0.016-0.044-0.023-0.069-0.023l-4.111,0.901v-4.764h4.491c0.061,0,0.11-0.05,0.11-0.111
		v-1.838c0-0.06-0.049-0.109-0.11-0.109h-6.639c-0.061,0-0.11,0.05-0.11,0.109v18.658c0,0.039,0.021,0.075,0.055,0.095
		c0.033,0.02,0.076,0.021,0.11,0l6.642-3.82C55.912,47.245,55.933,47.208,55.933,47.169"/>
	<path clip-path="url(#SVGID_2_)" fill="#FFFFFF" d="M19.882,44.287l1.835,1.06c0.034,0.02,0.075,0.019,0.109-0.001
		c0.034-0.019,0.055-0.056,0.055-0.095l-0.001-12.917c0-0.062-0.049-0.111-0.109-0.111h-1.835c-0.06,0-0.109,0.05-0.109,0.111v4.555
		l-4.42-0.973v-3.582c0-0.062-0.049-0.111-0.11-0.111h-1.814c-0.028,0-0.056,0.013-0.077,0.032c-0.021,0.021-0.032,0.05-0.032,0.079
		l0.001,8.168c0,0.039,0.022,0.076,0.056,0.096l1.812,1.031c0.034,0.019,0.076,0.019,0.109,0c0.034-0.02,0.055-0.056,0.055-0.096
		v-3.745l4.42,1.129v5.274C19.827,44.23,19.848,44.267,19.882,44.287"/>
	<path clip-path="url(#SVGID_2_)" fill="#FFFFFF" d="M59.41,45.172c0.034,0.02,0.077,0.021,0.111,0.001l1.897-1.076
		c0.008-0.005,0.013-0.013,0.013-0.021v-5.231l1.108-0.289l3.26,2.915c0.031,0.044,0.095,0.059,0.143,0.029l1.66-0.964
		c0.026-0.016,0.045-0.041,0.052-0.072c0.005-0.022,0.002-0.047-0.008-0.068l-2.848-2.416l2.016-0.513
		c0.671-0.172,0.776-0.484,0.768-1.167l-0.005-3.317c-0.084-0.483-0.434-0.76-0.937-0.76c-0.028,0-0.057,0.001-0.072,0.002
		l-7.102-0.001c-0.055,0-0.111,0.067-0.111,0.133l0.001,12.722C59.356,45.116,59.377,45.153,59.41,45.172 M61.431,34.282h3.85
		c0.172,0,0.312,0.139,0.312,0.311v0.977c0,0.224-0.043,0.344-0.331,0.413l-3.831,0.84V34.282z"/>
</g>
</svg>
