<?xml version="1.0" encoding="utf-8"?>
<!-- Generator: Adobe Illustrator 22.0.1, SVG Export Plug-In . SVG Version: 6.00 Build 0)  -->
<svg version="1.1" baseProfile="tiny" id="Camada_1"
	 xmlns="http://www.w3.org/2000/svg" xmlns:xlink="http://www.w3.org/1999/xlink" x="0px" y="0px" viewBox="0 0 468.8 105.2"
	 xml:space="preserve">
<g transform="translate(-0.051 -0.02)">
	<g transform="translate(0.05 0.02)">
		<path fill="#706359" d="M373,73.7c-17.9,0-32.4-10.7-32.4-23.8s14.5-23.8,32.5-23.9c17.9,0,32.4,10.7,32.4,23.9
			C405.6,63,391.1,73.7,373,73.7z M349.9,49.9c0,10,10.4,18.1,23.1,18.1s23.1-8.1,23.2-18.1c0-10-10.4-18.2-23.1-18.2
			C360.4,31.7,350,39.9,349.9,49.9z M19.1,26l23,33.3L65.1,26l18.9,47.7h-9.5L62.9,44.3l-21,28.9L21.3,44.3L9.5,73.7H0L19.1,26z
			 M99.2,73.7H89.1l33-47.7l33.2,47.7h-10l-8.2-11.5h-30L99.2,73.7z M122.1,40.4l-11.4,16.4h22.9L122.1,40.4z M262.6,61.8l6.3,4.4
			c-5.9,4.6-14.2,7.5-23.4,7.5c-18,0-32.4-10.7-32.4-23.8c0-13.1,14.4-23.9,32.3-23.9c8.4-0.1,16.7,2.5,23.4,7.6l-6.2,4.3
			c-4.9-4-11-6.1-17.3-6c-12.7,0-23.1,8-23.1,17.9c0.1,9.9,10.5,17.9,23.2,17.9C251.7,68,257.8,65.9,262.6,61.8L262.6,61.8z
			 M277.6,26h9.3v19.2h36.7V26h9.2v47.7h-9.2V50.6h-36.7v23.1h-9.3L277.6,26z M199,73.7L182,54.5h-13.2v19.2h-8.3V26h24.7
			c7,0,12.6,2.1,16.3,5.1l0,0c2.9,2.4,4.6,5.9,4.6,9.7l0,0v0.1c0,7.2-5.9,12.1-13.9,13.6l17,19.2L199,73.7L199,73.7z M184.7,49.1
			c8-0.1,13.1-3.2,13.1-8l0,0V41c0-4.6-4.4-9.5-13-9.6h-15.9v17.7L184.7,49.1L184.7,49.1z"/>
		<path fill="#706359" d="M468.8,72.2L422.9,42v30.3h-9.3V27.4l45.9,30.3V27.4h9.3V72.2z"/>
	</g>
	<g transform="translate(99.031 64.496)">
		<g transform="translate(0 1.975)">
			<path fill="#706359" d="M0,26h7.7v2H2.6v1.9h4.8v2H2.6v2.5h5.5v2H0V26z"/>
			<path fill="#706359" d="M8.5,26h3l2.2,3.6c0.1-0.3,0.3-0.5,0.4-0.8l1.8-2.8h2.9L15,31.5v4.9h-2.6v-4.8L8.5,26z"/>
			<path fill="#706359" d="M19.9,26h7.7v2h-5.1v1.9h4.8v2h-4.8v2.5H28v2h-8.1V26z"/>
			<path fill="#706359" d="M36.7,26c0.3,1.1,0.6,2.2,1,3.3c0.5,1.4,0.8,2.9,1,4.3c0.3-2.1,0.4-2.4,0.9-4.5c0.2-1.1,0.5-2.1,0.7-3.2
				h2.6l-2.6,10.4h-2.7c-0.3-1.1-0.6-2.3-1-3.4c-0.4-1.1-0.7-2.3-0.9-3.4c-0.2,1.1-0.5,2.3-0.9,3.4l-1,3.5H31L28.4,26H31
				c0.7,2.5,1.2,5.1,1.5,7.7c0.3-1.5,0.6-3,1-4.5l0.9-3.2L36.7,26L36.7,26z"/>
			<path fill="#706359" d="M43.8,26h7.7v2h-5.1v1.9h4.8v2h-4.8v2.5h5.5v2h-8.1V26z"/>
			<path fill="#706359" d="M58.8,26l3.8,10.4h-2.8l-0.5-1.7h-3.8L55,36.4h-2.8L56.1,26H58.8z M57.4,28.5c-0.1,0.5-0.3,1.1-0.4,1.6
				c-0.2,0.8-0.6,2-0.9,2.8h2.6L57.4,28.5z"/>
			<path fill="#706359" d="M63.6,26h4.7c1.2-0.1,2.5,0.2,3.4,1.1c0.5,0.6,0.8,1.5,0.8,2.3c0.1,1.3-0.8,2.6-2.1,2.9l2.4,4.2h-2.9
				l-2.1-3.7h-1.6v3.7h-2.6L63.6,26L63.6,26z M66.2,27.9v2.8h2.1c0.8,0.1,1.4-0.4,1.5-1.2c0-0.1,0-0.2,0-0.3c0-1.3-1-1.4-1.5-1.4
				L66.2,27.9L66.2,27.9z"/>
		</g>
		<g transform="translate(82.289)">
			<path fill="#706359" d="M0.9,40.7H0V26h0.9V40.7z"/>
		</g>
		<g transform="translate(92.51 1.708)">
			<path fill="#706359" d="M9.2,36.7H8.1l-1.2-3.1H2.3l-1.2,3.1H0l4.2-10.4h0.8L9.2,36.7z M6.6,32.7l-2-5.3l-2,5.3H6.6z"/>
			<path fill="#706359" d="M19.3,36.7h-0.9l-3.8-10.4h1.1l3.2,9l3.3-9h1L19.3,36.7z"/>
			<path fill="#706359" d="M30.4,28.8c-0.1-0.3-0.2-0.6-0.4-0.9c-0.5-0.7-1.4-1.1-2.3-1c-1.1,0-2.4,0.5-2.4,1.9
				c0,1.3,1.2,1.6,1.7,1.8c0.3,0.1,1.8,0.5,2.1,0.6c1.3,0.3,2.3,1.4,2.4,2.7c0,1.5-1.2,3.1-3.9,3.1c-0.9,0-1.7-0.2-2.4-0.6
				c-0.8-0.5-1.3-1.3-1.4-2.3l1-0.5c0,0.4,0.1,0.8,0.3,1.2c0.5,0.9,1.6,1.4,2.6,1.3c2,0,2.9-1.1,2.9-2.2c0-0.5-0.2-1.1-0.6-1.4
				c-0.7-0.5-1.6-0.8-2.4-0.9c-1.5-0.4-3.1-0.9-3.1-2.9c0-2,1.8-2.7,3.4-2.7c1.6-0.2,3,0.8,3.6,2.3L30.4,28.8z"/>
			<path fill="#706359" d="M34.4,36.7h-0.9V26.3H37c1-0.1,2,0,2.9,0.3c0.9,0.5,1.5,1.5,1.4,2.6c0.1,1.3-0.8,2.4-2,2.7
				C38.4,32,37.6,32,36.7,32h-2.3L34.4,36.7z M34.4,31.1h2.7c0.6,0,1.1,0,1.7-0.1c0.9-0.1,1.6-1,1.5-1.9c0-0.6-0.2-1.3-0.7-1.7
				c-0.5-0.3-0.8-0.3-2.7-0.3h-2.5L34.4,31.1z"/>
			<path fill="#706359" d="M55.7,36.7h-0.9v-1.7c-0.2,0.7-0.8,1.3-1.4,1.6c-0.5,0.3-1.1,0.4-1.7,0.4c-2.9,0-4.4-2.3-4.4-5.4
				c0-3.2,1.6-5.5,4.6-5.5c1.7-0.1,3.3,1,3.8,2.6l-0.9,0.5c-0.2-1.4-1.5-2.3-2.8-2.3c-2.1,0-3.7,1.7-3.7,4.6c0,2.6,1.2,4.6,3.4,4.6
				c2.5,0,3.1-2.3,3.1-3.9h-3.8v-0.9h4.7L55.7,36.7z"/>
			<path fill="#706359" d="M65.5,36.7h-6.7V26.3h1v9.5h5.7V36.7z"/>
			<path fill="#706359" d="M73.3,35.6c-1.6,1.7-4.4,1.8-6.1,0.2c-0.1-0.1-0.2-0.2-0.2-0.2c-0.9-1.2-1.4-2.6-1.3-4.1
				c0-2.9,1.4-5.4,4.5-5.4c3.4,0,4.5,3,4.4,5.4C74.7,32.9,74.2,34.4,73.3,35.6z M70.2,26.9c-2.6,0-3.5,2.6-3.5,4.6
				c0,1.9,0.8,4.6,3.4,4.6c3.2,0,3.4-3.8,3.4-4.6C73.6,29.5,72.8,26.9,70.2,26.9z"/>
			<path fill="#706359" d="M81.1,26.3c0.9-0.1,1.8,0.2,2.6,0.7c0.5,0.5,0.8,1.2,0.8,1.9c0.1,1.1-0.7,2-1.8,2.2c0,0-0.1,0-0.1,0
				c0,0,0.1,0,0.1,0c1.3,0.2,2.2,1.3,2.1,2.6c0.1,1.5-1,2.7-2.4,2.9c-0.8,0.1-1.7,0.1-2.5,0.1h-3.1V26.3L81.1,26.3L81.1,26.3z
				 M77.8,30.7h2.9c0.8,0.1,1.5-0.1,2.2-0.5c0.4-0.3,0.6-0.8,0.6-1.3c0-0.5-0.2-1-0.6-1.3c-0.6-0.3-1.3-0.5-2-0.4h-3.1L77.8,30.7z
				 M77.8,35.8h2.6c0.7,0,1,0,1.3,0c1.3-0.1,2.1-0.7,2.1-2c0-1-0.7-1.9-1.6-2.1c-0.5-0.1-1-0.2-1.6-0.1h-2.9L77.8,35.8z"/>
			<path fill="#706359" d="M94.8,36.7h-1.1l-1.2-3.1h-4.6l-1.2,3.1h-1.1l4.2-10.4h0.8L94.8,36.7z M92.2,32.7l-2-5.3l-2,5.3H92.2z"/>
			<path fill="#706359" d="M102.9,36.7h-6.7V26.3h1v9.5h5.7L102.9,36.7z"/>
			<path fill="#706359" d="M117.2,34.4c-0.6,1.6-2.2,2.6-3.9,2.5c-1.3,0.1-2.5-0.5-3.3-1.4c-0.8-1.2-1.3-2.6-1.2-4
				c0-2.2,0.8-5.5,4.4-5.5c1.8-0.1,3.5,1,4,2.7l-1,0.5c-0.2-0.7-0.5-1.4-1.1-1.8c-0.6-0.4-1.2-0.6-1.9-0.5c-1-0.1-2,0.4-2.6,1.2
				c-0.6,1-1,2.1-0.9,3.3c0,1.2,0.3,2.4,0.9,3.4c0.7,0.8,1.7,1.3,2.7,1.2c0.6,0,1.1-0.1,1.6-0.4c0.6-0.4,1-1.1,1.2-1.8L117.2,34.4z"
				/>
			<path fill="#706359" d="M126.5,35.6c-1.6,1.7-4.4,1.8-6.1,0.2c-0.1-0.1-0.2-0.2-0.2-0.2c-0.9-1.2-1.4-2.6-1.3-4.1
				c0-2.9,1.4-5.4,4.5-5.4c3.4,0,4.5,3,4.4,5.4C127.9,32.9,127.4,34.4,126.5,35.6z M123.4,26.9c-2.6,0-3.5,2.6-3.5,4.6
				c0,1.9,0.8,4.6,3.4,4.6c3.2,0,3.4-3.8,3.4-4.6C126.8,29.5,126,26.9,123.4,26.9L123.4,26.9z"/>
			<path fill="#706359" d="M139.3,36.7h-1l0.1-8.8l-3.4,8.8h-0.7l-3.5-8.8l0.1,8.8h-1V26.3h1.2l3.5,8.8l3.3-8.8h1.2V36.7z"/>
			<path fill="#706359" d="M143.2,36.7h-0.9V26.3h3.5c1-0.1,2,0,2.9,0.3c0.9,0.5,1.5,1.5,1.4,2.6c0.1,1.3-0.8,2.4-2,2.7
				c-0.9,0.1-1.7,0.2-2.6,0.1h-2.3L143.2,36.7L143.2,36.7z M143.2,31.1h2.7c0.6,0,1.1,0,1.7-0.1c0.9-0.1,1.6-1,1.5-1.9
				c0-0.6-0.2-1.3-0.7-1.7c-0.5-0.3-0.8-0.3-2.7-0.3h-2.5L143.2,31.1L143.2,31.1z"/>
			<path fill="#706359" d="M158.5,36.7h-1.1l-1.2-3.1h-4.6l-1.2,3.1h-1.1l4.2-10.4h0.8L158.5,36.7z M155.9,32.7l-2-5.3l-2,5.3H155.9
				z"/>
			<path fill="#706359" d="M167.8,36.7h-1l-6.1-9v9h-1V26.3h1l6.2,8.9l-0.1-8.9h1L167.8,36.7z"/>
			<path fill="#706359" d="M174,36.7h-1v-4.3l-3.9-6.1h1.1l3.2,5.2l3.3-5.2h1.2l-4.1,6.1L174,36.7L174,36.7z"/>
		</g>
	</g>
</g>
</svg>
