<svg id="Calque_1" data-name="Calque 1" xmlns="http://www.w3.org/2000/svg" viewBox="0 0 361.5 57.23"><defs><style>.cls-1{fill:#fff;},.cls-2{fill:#181716;}.cls-2,.cls-5,.cls-6{fill-rule:evenodd;}.cls-3,.cls-6{fill:#fff;}.cls-4{fill:#008150;}.cls-5{fill:#e3001d;}</style></defs><title>th-logo-desktop</title><path class="cls-1" d="M308.33,432.32c-7,1.58-16.06,2-22.58-1-5.57-2.44-9-8.26-9.72-13.95a18.22,18.22,0,0,1,7.48-17.23c6.54-4.67,16.9-4.52,24-1.27V406c-5.39-2.47-13.49-3.93-18.65,0-3.71,2.85-4.86,7.36-3.93,11.88a11.43,11.43,0,0,0,7.21,7.95,19.55,19.55,0,0,0,8.07.68v-5.8h-3.55v-7h11.66v18.56Z" transform="translate(-115.47 -396.55)"/><polygon class="cls-1" points="106.68 36.13 106.68 6.92 119.58 6.92 119.58 0.12 84.62 0.12 84.62 6.92 97.52 6.92 97.52 36.13 106.68 36.13"/><path class="cls-1" d="M248.2,419.32l5.16-13.42L259,419.32ZM258.43,397H248L233.27,432.9h9.65l2.76-7h16.06l2.94,7h9.65Z" transform="translate(-115.47 -396.55)"/><polygon class="cls-1" points="228.08 15.82 207.72 15.82 207.73 0.38 202.26 0.38 202.26 36.23 207.73 36.23 207.72 20.65 228.08 20.65 228.06 36.23 233.54 36.23 233.54 0.38 228.06 0.38 228.08 15.82"/><path class="cls-1" d="M409.37,422.68a9.79,9.79,0,0,1-9.11,6.07c-6.36,0-7.31-4.92-7.31-7.86V401.75h-5.46v18.4c0,12.42,9.35,13.38,12.22,13.38a13.9,13.9,0,0,0,9.67-3.7v3h5.47v-31h-5.47Z" transform="translate(-115.47 -396.55)"/><path class="cls-1" d="M477,405c-.14-.16-3.51-3.91-7.87-3.91-3.84,0-7.59,3.69-9.73,6.27v-5.72H453.9v31.18h5.46V414.23c1.42-2.38,5.34-7.81,8.61-7.81,2.74,0,5.62,3.09,5.65,3.12Z" transform="translate(-115.47 -396.55)"/><path class="cls-1" d="M368.28,401.11c-8.56,0-15,6.38-15,16.09,0,6.68,4.52,16.27,16.64,16.27a19.49,19.49,0,0,0,12.54-4.38l.32-.3v-6.37L381.08,424s-4.64,4.36-10.78,4.36c-6.69,0-11.36-3.9-11.36-11.11v-.06h24.42v-1C383.36,408.55,378.64,401.11,368.28,401.11Zm-8.56,11.29c1.4-4.37,4.52-6.12,8.54-6.12,6.53,0,8.35,3.93,8.85,6.12Z" transform="translate(-115.47 -396.55)"/><path class="cls-1" d="M434.39,401.11c-8.56,0-15,6.38-15,16.09,0,6.68,4.52,16.27,16.64,16.27a19.49,19.49,0,0,0,12.54-4.38l.32-.3v-6.37L447.2,424s-4.64,4.36-10.78,4.36c-6.69,0-11.36-3.9-11.36-11.11v-.06h24.42v-1C449.47,408.55,444.75,401.11,434.39,401.11Zm-8.56,11.29c1.4-4.37,4.52-6.12,8.54-6.12,6.53,0,8.35,3.93,8.85,6.12Z" transform="translate(-115.47 -396.55)"/><path class="cls-1" d="M214.8,449.65l-1-.64a4.73,4.73,0,0,1-1.4-1.18,2.24,2.24,0,0,1-.42-1.34,2.37,2.37,0,0,1,.79-1.85,2.93,2.93,0,0,1,2-.71,3.87,3.87,0,0,1,2.21.68v1.55a3.19,3.19,0,0,0-2.23-1,1.84,1.84,0,0,0-1.1.31.94.94,0,0,0-.43.8,1.22,1.22,0,0,0,.32.81,4,4,0,0,0,1,.79l1,.63a3.1,3.1,0,0,1,1.75,2.68,2.45,2.45,0,0,1-.77,1.88,2.82,2.82,0,0,1-2,.72,4.2,4.2,0,0,1-2.59-.88v-1.74a3.23,3.23,0,0,0,2.58,1.42,1.62,1.62,0,0,0,1.08-.36,1.13,1.13,0,0,0,.43-.91C216.07,450.73,215.64,450.17,214.8,449.65Z" transform="translate(-115.47 -396.55)"/><path class="cls-1" d="M232.67,444.07H234l-3.87,9.65h-.32l-3.13-7.82-3.17,7.82h-.32l-3.85-9.65h1.39l2.64,6.62,2.67-6.62h1.31L230,450.7Z" transform="translate(-115.47 -396.55)"/><path class="cls-1" d="M236.7,444.07h1.38v9.6H236.7Z" transform="translate(-115.47 -396.55)"/><path class="cls-1" d="M244.17,449.65l-1-.64a4.76,4.76,0,0,1-1.4-1.18,2.24,2.24,0,0,1-.41-1.34,2.37,2.37,0,0,1,.79-1.85,2.94,2.94,0,0,1,2-.71,3.86,3.86,0,0,1,2.21.68v1.55a3.18,3.18,0,0,0-2.23-1,1.84,1.84,0,0,0-1.1.31.94.94,0,0,0-.43.8,1.22,1.22,0,0,0,.32.81,4.07,4.07,0,0,0,1,.79l1,.63a3.1,3.1,0,0,1,1.75,2.68,2.46,2.46,0,0,1-.77,1.88,2.82,2.82,0,0,1-2,.72,4.19,4.19,0,0,1-2.59-.88v-1.74a3.23,3.23,0,0,0,2.58,1.42,1.61,1.61,0,0,0,1.07-.36,1.13,1.13,0,0,0,.43-.91Q245.44,450.43,244.17,449.65Z" transform="translate(-115.47 -396.55)"/><path class="cls-1" d="M252.19,449.65l-1-.64a4.74,4.74,0,0,1-1.4-1.18,2.24,2.24,0,0,1-.42-1.34,2.38,2.38,0,0,1,.79-1.85,2.94,2.94,0,0,1,2-.71,3.85,3.85,0,0,1,2.2.68v1.55a3.17,3.17,0,0,0-2.23-1,1.85,1.85,0,0,0-1.1.31,1,1,0,0,0-.43.8,1.22,1.22,0,0,0,.32.81,4,4,0,0,0,1,.79l1,.63a3.09,3.09,0,0,1,1.75,2.68,2.46,2.46,0,0,1-.77,1.88,2.81,2.81,0,0,1-2,.72,4.2,4.2,0,0,1-2.59-.88v-1.74a3.23,3.23,0,0,0,2.58,1.42,1.61,1.61,0,0,0,1.07-.36,1.13,1.13,0,0,0,.43-.91C253.46,450.73,253,450.17,252.19,449.65Z" transform="translate(-115.47 -396.55)"/><path class="cls-1" d="M266.39,444h1l4.3,9.65h-1.41L269,450.84h-4.09l-1.2,2.84h-1.41Zm2,5.59-1.56-3.48-1.45,3.48Z" transform="translate(-115.47 -396.55)"/><path class="cls-1" d="M279.23,444.07h1.38l-4.07,9.65h-.32l-4.11-9.65h1.38l2.88,6.75Z" transform="translate(-115.47 -396.55)"/><path class="cls-1" d="M285.18,444h1l4.3,9.65H289l-1.28-2.84h-4.09l-1.19,2.84h-1.41Zm2,5.59-1.56-3.48-1.45,3.48Z" transform="translate(-115.47 -396.55)"/><path class="cls-1" d="M300.71,444.07H302v9.6h-1.18l-6.42-7.4v7.4h-1.29v-9.6h1.11l6.47,7.46Z" transform="translate(-115.47 -396.55)"/><path class="cls-1" d="M304.84,444.07h8v1.22h-3.34v8.38h-1.38V445.3h-3.29Z" transform="translate(-115.47 -396.55)"/><path class="cls-1" d="M312.85,449.9h3.42v1.33h-3.42Z" transform="translate(-115.47 -396.55)"/><path class="cls-1" d="M324.66,448.94h3.23V453a8.78,8.78,0,0,1-3.52.77,5.22,5.22,0,0,1-3.81-1.39,4.62,4.62,0,0,1-1.42-3.44,4.79,4.79,0,0,1,1.48-3.59,5.12,5.12,0,0,1,3.71-1.43,6.34,6.34,0,0,1,1.54.18,12.07,12.07,0,0,1,1.84.65v1.4a6.72,6.72,0,0,0-3.41-1,3.68,3.68,0,0,0-3.73,3.71,3.57,3.57,0,0,0,1.08,2.68,3.83,3.83,0,0,0,2.77,1,6.41,6.41,0,0,0,2-.38l.13,0v-2h-1.85Z" transform="translate(-115.47 -396.55)"/><path class="cls-1" d="M334,444h1l4.3,9.65h-1.41l-1.28-2.84h-4.09l-1.2,2.84h-1.41Zm2,5.59-1.56-3.48L333,449.61Z" transform="translate(-115.47 -396.55)"/><path class="cls-1" d="M341.36,453.68v-9.6h2.4a3.47,3.47,0,0,1,2.31.72,2.42,2.42,0,0,1,.85,2,2.4,2.4,0,0,1-1.63,2.37,4.34,4.34,0,0,1,.91.83,16.35,16.35,0,0,1,1.24,1.82q.5.82.8,1.23l.51.69h-1.64l-.42-.63-.08-.12-.27-.38-.43-.7-.46-.75a7.8,7.8,0,0,0-.78-.94,3,3,0,0,0-.64-.51,2.19,2.19,0,0,0-1-.15h-.36v4.17Zm1.79-8.44h-.41v3h.52a3.78,3.78,0,0,0,1.42-.18,1.34,1.34,0,0,0,.6-.54,1.57,1.57,0,0,0,.22-.83,1.49,1.49,0,0,0-.24-.83,1.3,1.3,0,0,0-.67-.52A4.88,4.88,0,0,0,343.15,445.23Z" transform="translate(-115.47 -396.55)"/><path class="cls-1" d="M350.83,453.68v-9.6h3.24a6.86,6.86,0,0,1,3.11.59,4.43,4.43,0,0,1,1.82,1.73,4.79,4.79,0,0,1,.68,2.49,4.75,4.75,0,0,1-3.07,4.44,4.89,4.89,0,0,1-1,.28,13.23,13.23,0,0,1-1.74.07Zm3.1-8.38h-1.72v7.16H354a7,7,0,0,0,1.61-.14,3.79,3.79,0,0,0,1-.36,3.35,3.35,0,0,0,.7-.53,3.56,3.56,0,0,0,1-2.61,3.3,3.3,0,0,0-1-2.53,3.34,3.34,0,0,0-.89-.6,3.74,3.74,0,0,0-.95-.31A9.61,9.61,0,0,0,353.93,445.3Z" transform="translate(-115.47 -396.55)"/><path class="cls-1" d="M363,444.07h5.44v1.22h-4.07v2.93h3.92v1.22h-3.92v3h4.19v1.22H363Z" transform="translate(-115.47 -396.55)"/><path class="cls-1" d="M379.46,449.65l-1-.64a4.8,4.8,0,0,1-1.4-1.18,2.24,2.24,0,0,1-.42-1.34,2.38,2.38,0,0,1,.79-1.85,2.94,2.94,0,0,1,2-.71,3.87,3.87,0,0,1,2.21.68v1.55a3.18,3.18,0,0,0-2.23-1,1.85,1.85,0,0,0-1.11.31,1,1,0,0,0-.43.8,1.21,1.21,0,0,0,.32.81,3.94,3.94,0,0,0,1,.79l1,.63a3.09,3.09,0,0,1,1.75,2.68,2.45,2.45,0,0,1-.77,1.88,2.82,2.82,0,0,1-2,.72,4.19,4.19,0,0,1-2.59-.88v-1.74a3.23,3.23,0,0,0,2.58,1.42,1.62,1.62,0,0,0,1.08-.36,1.13,1.13,0,0,0,.43-.91Q380.73,450.43,379.46,449.65Z" transform="translate(-115.47 -396.55)"/><path class="cls-1" d="M385.11,444.07h1.38v9.6h-1.38Z" transform="translate(-115.47 -396.55)"/><path class="cls-1" d="M397.82,444.07h1.3v9.6h-1.18l-6.42-7.4v7.4h-1.29v-9.6h1.11l6.47,7.46Z" transform="translate(-115.47 -396.55)"/><path class="cls-1" d="M411,451.45V453a7.12,7.12,0,0,1-3.49.83,5.35,5.35,0,0,1-2.73-.65,4.74,4.74,0,0,1-1.77-1.78,4.82,4.82,0,0,1-.66-2.46,4.7,4.7,0,0,1,1.49-3.53,5.12,5.12,0,0,1,3.68-1.43,8.73,8.73,0,0,1,3.36.79v1.48a6.63,6.63,0,0,0-3.29-1,3.79,3.79,0,0,0-2.73,1,3.48,3.48,0,0,0-1.09,2.62,3.43,3.43,0,0,0,1.07,2.6,3.8,3.8,0,0,0,2.74,1A6.23,6.23,0,0,0,411,451.45Z" transform="translate(-115.47 -396.55)"/><path class="cls-1" d="M414.31,444.07h5.44v1.22h-4.06v2.93h3.92v1.22h-3.92v3h4.19v1.22h-5.57Z" transform="translate(-115.47 -396.55)"/><path class="cls-1" d="M430.2,444.07h1.38v9.6H430.2Z" transform="translate(-115.47 -396.55)"/><path class="cls-1" d="M436.65,446.63a2.53,2.53,0,0,1,.85-1.92,2.94,2.94,0,0,1,2.07-.79,2.85,2.85,0,0,1,2,.78,2.56,2.56,0,0,1-.36,4,2.48,2.48,0,0,1,1.33,2.28,2.53,2.53,0,0,1-.87,2,3.44,3.44,0,0,1-4.38,0,2.55,2.55,0,0,1-.89-2,2.49,2.49,0,0,1,1.35-2.26,3.4,3.4,0,0,1-.87-1A2.36,2.36,0,0,1,436.65,446.63Zm4.54,4.46V451a1.38,1.38,0,0,0-.47-1.08,1.78,1.78,0,0,0-1.23-.42,1.74,1.74,0,0,0-1.21.42,1.41,1.41,0,0,0-.47,1.09,1.39,1.39,0,0,0,.48,1.09,1.78,1.78,0,0,0,1.24.42,1.8,1.8,0,0,0,1.19-.39A1.24,1.24,0,0,0,441.19,451.09Zm-.12-4.41a1.37,1.37,0,0,0-.43-1,1.69,1.69,0,0,0-2.19,0,1.35,1.35,0,0,0-.43,1,1.37,1.37,0,0,0,.45,1,1.52,1.52,0,0,0,1.08.43,1.48,1.48,0,0,0,1.07-.43A1.36,1.36,0,0,0,441.06,446.68Z" transform="translate(-115.47 -396.55)"/><path class="cls-1" d="M448.91,444l.14-.1.83,1.05a8.4,8.4,0,0,0-1.83,1.55,6,6,0,0,0-1.12,2,3.27,3.27,0,0,1,1.52-.4,2.56,2.56,0,0,1,1.91.81,2.73,2.73,0,0,1,.78,2,2.77,2.77,0,0,1-.85,2,2.8,2.8,0,0,1-2.05.84,2.77,2.77,0,0,1-2.19-1,3.65,3.65,0,0,1-.84-2.5,6.46,6.46,0,0,1,.43-2.3,7.78,7.78,0,0,1,1.23-2.15A9.9,9.9,0,0,1,448.91,444Zm-2.27,5.92a4,4,0,0,0-.06.72,1.89,1.89,0,0,0,.47,1.33,1.55,1.55,0,0,0,1.21.52,1.45,1.45,0,0,0,1.09-.45,1.55,1.55,0,0,0,.43-1.12,1.47,1.47,0,0,0-.45-1.12,1.71,1.71,0,0,0-1.21-.43,2,2,0,0,0-.7.12A3.89,3.89,0,0,0,446.65,449.94Z" transform="translate(-115.47 -396.55)"/><path class="cls-1" d="M456.79,443.93a2.53,2.53,0,0,1,2.18,1.39,7.71,7.71,0,0,1,0,7.08,2.52,2.52,0,0,1-4.48,0,6.63,6.63,0,0,1-.84-3.56,6.56,6.56,0,0,1,.87-3.56A2.61,2.61,0,0,1,456.79,443.93Zm0,1.3h-.07a1.41,1.41,0,0,0-1.25,1,6.22,6.22,0,0,0-.46,2.64,6.48,6.48,0,0,0,.45,2.68,1.39,1.39,0,0,0,1.25,1,1.41,1.41,0,0,0,1.26-1,6.2,6.2,0,0,0,.46-2.64,6.64,6.64,0,0,0-.44-2.67Q457.55,445.24,456.8,445.23Z" transform="translate(-115.47 -396.55)"/><polygon class="cls-2" points="0 38.29 0 0.12 66.02 0.12 66.03 38.29 33.02 57.23 0 38.29"/><polygon class="cls-3" points="1.73 1.8 1.67 1.8 1.67 37.31 32.99 55.32 33 55.33 33.05 55.33 64.31 37.33 64.34 37.31 64.34 1.82 1.73 1.8"/><rect class="cls-4" x="3.4" y="3.47" width="59.2" height="19.23"/><polygon class="cls-5" points="3.4 24.38 3.4 36.33 33.02 53.34 62.6 36.34 62.6 24.38 3.4 24.38"/><polygon class="cls-6" points="17.85 20.44 17.85 8.83 23.99 8.83 23.99 5.74 7.34 5.74 7.34 8.83 13.49 8.83 13.49 20.44 17.85 20.44 17.85 20.44 17.85 20.44"/><path class="cls-6" d="M173.42,416.72c-3.35.65-7.65.84-10.76-.39a7.32,7.32,0,0,1-4.63-5.71,7.06,7.06,0,0,1,3.57-7.06c3.11-1.91,8-1.85,11.43-.52h0v3.2c-2.56-1-6.42-1.89-8.89-.28a4.36,4.36,0,0,0-1.87,4.87,5,5,0,0,0,3.43,3.26,10.75,10.75,0,0,0,3.84.28h0V412h-1.69v-2.86h5.55Z" transform="translate(-115.47 -396.55)"/><path class="cls-6" d="M143.66,414.11,142.19,417h-4.45L145,402.3h5L157.31,417h-4.46l-1.54-2.89Zm3.85-8.16-2.64,5.17H150Z" transform="translate(-115.47 -396.55)"/><path class="cls-3" d="M153.31,444.17V423.22a.11.11,0,0,0-.11-.11h-2.13a.11.11,0,0,0-.11.11v19.67l-2.47,1.35L146,442.89V423.22a.11.11,0,0,0-.11-.11h-2.14a.11.11,0,0,0-.11.11v20.94a.11.11,0,0,0,.06.1l4.73,2.71a.11.11,0,0,0,.11,0l4.72-2.71A.11.11,0,0,0,153.31,444.17Z" transform="translate(-115.47 -396.55)"/><path class="cls-3" d="M140.18,442.25a.1.1,0,0,0,.1,0,.11.11,0,0,0,.05-.1v-2.27a.11.11,0,0,0-.06-.1l-4.53-2.47v-5.48l4.06,1a.11.11,0,0,0,.08-.11v-2.24a.14.14,0,0,0-.1-.11l-4-.9v-4.35h4.48a.11.11,0,0,0,.1-.11v-1.84a.11.11,0,0,0-.1-.11h-6.65a.11.11,0,0,0-.1.11v15.1a.11.11,0,0,0,.05.1Z" transform="translate(-115.47 -396.55)"/><path class="cls-3" d="M163.93,438.06v-2a.11.11,0,0,0-.16-.1l-4.44,2.43v-6l4.14-1.06a.11.11,0,0,0,.08-.11v-2a.11.11,0,0,0,0-.09l-.07,0-4.11.9v-4.76h4.49a.11.11,0,0,0,.11-.11v-1.84a.11.11,0,0,0-.11-.11h-6.64a.11.11,0,0,0-.11.11v18.66a.11.11,0,0,0,.06.1.11.11,0,0,0,.11,0l6.64-3.82A.11.11,0,0,0,163.93,438.06Z" transform="translate(-115.47 -396.55)"/><path class="cls-3" d="M127.88,435.18l1.84,1.06a.11.11,0,0,0,.11,0,.11.11,0,0,0,.05-.1V423.22a.11.11,0,0,0-.11-.11h-1.84a.11.11,0,0,0-.11.11v4.56l-4.42-1v-3.58a.11.11,0,0,0-.11-.11h-1.81a.11.11,0,0,0-.08,0,.11.11,0,0,0,0,.08v8.17a.11.11,0,0,0,.06.1l1.81,1a.11.11,0,0,0,.11,0,.11.11,0,0,0,.06-.1v-3.75l4.42,1.13v5.27A.11.11,0,0,0,127.88,435.18Z" transform="translate(-115.47 -396.55)"/><path class="cls-3" d="M167.41,436.06a.11.11,0,0,0,.11,0l1.9-1.08v-5.25l1.11-.29,3.26,2.91a.11.11,0,0,0,.14,0l1.66-1a.11.11,0,0,0,.05-.07.11.11,0,0,0,0-.07l-2.85-2.42,2-.51c.67-.17.78-.48.77-1.17v-3.32a.88.88,0,0,0-.94-.76h-7.17a.13.13,0,0,0-.11.13V436A.11.11,0,0,0,167.41,436.06Zm2-10.89h3.85a.31.31,0,0,1,.31.31v1c0,.22,0,.34-.33.41l-3.83.84Z" transform="translate(-115.47 -396.55)"/></svg>