<?xml version="1.0" encoding="utf-8"?>
<!-- Generator: Adobe Illustrator 22.0.1, SVG Export Plug-In . SVG Version: 6.00 Build 0)  -->
<svg version="1.1" baseProfile="tiny" id="Calque_1"
	 xmlns="http://www.w3.org/2000/svg" xmlns:xlink="http://www.w3.org/1999/xlink" x="0px" y="0px" viewBox="0 0 276.9 176.4"
	 xml:space="preserve">
<title>th-logo-desktop</title>
<g>
	<path d="M108.2,154.9c-7,1.6-16.1,2-22.6-1c-5.6-2.4-9-8.3-9.7-14c-0.9-6.7,2-13.3,7.5-17.2c6.5-4.7,16.9-4.5,24-1.3v7.1
		c-5.4-2.5-13.5-3.9-18.6,0c-3.7,2.9-4.9,7.4-3.9,11.9c0.9,3.7,3.6,6.7,7.2,8c2.6,0.8,5.4,1,8.1,0.7v-5.8h-3.5v-7h11.7L108.2,154.9
		L108.2,154.9z"/>
	<polygon points="22.1,155.2 22.1,126 35,126 35,119.2 0,119.2 0,126 12.9,126 12.9,155.2 	"/>
	<path d="M48.1,141.9l5.2-13.4l5.6,13.4H48.1z M58.3,119.5H47.9l-14.7,35.9h9.6l2.8-7h16.1l2.9,7h9.6L58.3,119.5z"/>
	<polygon points="143.5,134.9 123.1,134.9 123.1,119.5 117.6,119.5 117.6,155.3 123.1,155.3 123.1,139.7 143.5,139.7 143.4,155.3 
		148.9,155.3 148.9,119.5 143.4,119.5 	"/>
	<path d="M209.3,145.2c-1.5,3.7-5.1,6.1-9.1,6.1c-6.4,0-7.3-4.9-7.3-7.9v-19.1h-5.5v18.4c0,12.4,9.4,13.4,12.2,13.4
		c3.6,0.1,7-1.3,9.7-3.7v3h5.5v-31h-5.5L209.3,145.2z"/>
	<path d="M276.9,127.5c-0.1-0.2-3.5-3.9-7.9-3.9c-3.8,0-7.6,3.7-9.7,6.3v-5.7h-5.5v31.2h5.5v-18.6c1.4-2.4,5.3-7.8,8.6-7.8
		c2.7,0,5.6,3.1,5.6,3.1L276.9,127.5z"/>
	<path d="M168.2,123.6c-8.6,0-15,6.4-15,16.1c0,6.7,4.5,16.3,16.6,16.3c4.6,0.1,9-1.5,12.5-4.4l0.3-0.3V145l-1.7,1.6
		c0,0-4.6,4.4-10.8,4.4c-6.7,0-11.4-3.9-11.4-11.1v-0.1h24.4v-1C183.3,131.1,178.6,123.6,168.2,123.6z M159.6,134.9
		c1.4-4.4,4.5-6.1,8.5-6.1c6.5,0,8.4,3.9,8.9,6.1H159.6z"/>
	<path d="M234.3,123.6c-8.6,0-15,6.4-15,16.1c0,6.7,4.5,16.3,16.6,16.3c4.6,0.1,9-1.5,12.5-4.4l0.3-0.3V145l-1.7,1.6
		c0,0-4.6,4.4-10.8,4.4c-6.7,0-11.4-3.9-11.4-11.1v-0.1h24.4v-1C249.4,131.1,244.7,123.6,234.3,123.6z M225.7,134.9
		c1.4-4.4,4.5-6.1,8.5-6.1c6.5,0,8.4,3.9,8.9,6.1H225.7z"/>
	<path d="M14.7,172.2l-1-0.6c-0.5-0.3-1-0.7-1.4-1.2c-0.3-0.4-0.4-0.9-0.4-1.3c0-0.7,0.3-1.4,0.8-1.9c0.6-0.5,1.3-0.7,2-0.7
		c0.8,0,1.6,0.2,2.2,0.7v1.5c-0.6-0.6-1.4-1-2.2-1c-0.4,0-0.8,0.1-1.1,0.3c-0.3,0.2-0.4,0.5-0.4,0.8c0,0.3,0.1,0.6,0.3,0.8
		c0.3,0.3,0.6,0.6,1,0.8l1,0.6c1,0.5,1.7,1.5,1.8,2.7c0,0.7-0.3,1.4-0.8,1.9c-0.5,0.5-1.3,0.8-2,0.7c-0.9,0-1.8-0.3-2.6-0.9v-1.7
		c0.6,0.9,1.5,1.4,2.6,1.4c0.4,0,0.8-0.1,1.1-0.4c0.3-0.2,0.4-0.6,0.4-0.9C16,173.3,15.5,172.7,14.7,172.2z"/>
	<path d="M32.6,166.6h1.3l-3.9,9.6h-0.3l-3.1-7.8l-3.2,7.8h-0.3l-3.9-9.6h1.4l2.6,6.6l2.7-6.6h1.3l2.7,6.6L32.6,166.6z"/>
	<path d="M36.6,166.6H38v9.6h-1.4V166.6z"/>
	<path d="M44.1,172.2l-1-0.6c-0.5-0.3-1-0.7-1.4-1.2c-0.3-0.4-0.4-0.9-0.4-1.3c0-0.7,0.3-1.4,0.8-1.9c0.6-0.5,1.3-0.7,2-0.7
		c0.8,0,1.6,0.2,2.2,0.7v1.5c-0.6-0.6-1.4-1-2.2-1c-0.4,0-0.8,0.1-1.1,0.3c-0.3,0.2-0.4,0.5-0.4,0.8c0,0.3,0.1,0.6,0.3,0.8
		c0.3,0.3,0.6,0.6,1,0.8l1,0.6c1,0.5,1.7,1.5,1.8,2.7c0,0.7-0.3,1.4-0.8,1.9c-0.5,0.5-1.3,0.8-2,0.7c-0.9,0-1.8-0.3-2.6-0.9v-1.7
		c0.6,0.9,1.5,1.4,2.6,1.4c0.4,0,0.8-0.1,1.1-0.4c0.3-0.2,0.4-0.6,0.4-0.9C45.3,173.3,44.9,172.7,44.1,172.2z"/>
	<path d="M52.1,172.2l-1-0.6c-0.5-0.3-1-0.7-1.4-1.2c-0.3-0.4-0.4-0.9-0.4-1.3c0-0.7,0.3-1.4,0.8-1.9c0.6-0.5,1.3-0.7,2-0.7
		c0.8,0,1.6,0.2,2.2,0.7v1.5c-0.6-0.6-1.4-1-2.2-1c-0.4,0-0.8,0.1-1.1,0.3c-0.3,0.2-0.4,0.5-0.4,0.8c0,0.3,0.1,0.6,0.3,0.8
		c0.3,0.3,0.6,0.6,1,0.8l1,0.6c1,0.5,1.7,1.5,1.8,2.7c0,0.7-0.3,1.4-0.8,1.9c-0.5,0.5-1.3,0.8-2,0.7c-0.9,0-1.8-0.3-2.6-0.9v-1.7
		c0.6,0.9,1.5,1.4,2.6,1.4c0.4,0,0.8-0.1,1.1-0.4c0.3-0.2,0.4-0.6,0.4-0.9C53.4,173.3,52.9,172.7,52.1,172.2z"/>
	<path d="M66.3,166.5h1l4.3,9.6h-1.4l-1.3-2.8h-4.1l-1.2,2.8h-1.4L66.3,166.5z M68.3,172.1l-1.6-3.5l-1.5,3.5H68.3z"/>
	<path d="M79.1,166.6h1.4l-4.1,9.6h-0.3l-4.1-9.6h1.4l2.9,6.8L79.1,166.6z"/>
	<path d="M85.1,166.5h1l4.3,9.6h-1.5l-1.3-2.8h-4.1l-1.2,2.8h-1.4L85.1,166.5z M87.1,172.1l-1.6-3.5l-1.5,3.5H87.1z"/>
	<path d="M100.6,166.6h1.3v9.6h-1.2l-6.4-7.4v7.4H93v-9.6h1.1l6.5,7.5L100.6,166.6z"/>
	<path d="M104.7,166.6h8v1.2h-3.3v8.4H108v-8.4h-3.3L104.7,166.6z"/>
	<path d="M112.8,172.4h3.4v1.3h-3.4V172.4z"/>
	<path d="M124.6,171.5h3.2v4.1c-1.1,0.5-2.3,0.8-3.5,0.8c-1.4,0.1-2.8-0.4-3.8-1.4c-0.9-0.9-1.4-2.1-1.4-3.4c0-1.4,0.5-2.7,1.5-3.6
		c1-1,2.3-1.5,3.7-1.4c0.5,0,1,0.1,1.5,0.2c0.6,0.2,1.2,0.4,1.8,0.6v1.4c-1-0.6-2.2-1-3.4-1c-2,0-3.7,1.6-3.7,3.6c0,0,0,0.1,0,0.1
		c0,1,0.4,2,1.1,2.7c0.8,0.7,1.8,1,2.8,1c0.7,0,1.4-0.1,2-0.4h0.1v-2h-1.9L124.6,171.5z"/>
	<path d="M133.9,166.5h1l4.3,9.6h-1.4l-1.3-2.8h-4.1l-1.2,2.8h-1.4L133.9,166.5z M135.9,172.1l-1.6-3.5l-1.4,3.5L135.9,172.1z"/>
	<path d="M141.3,176.2v-9.6h2.4c0.8,0,1.7,0.2,2.3,0.7c0.6,0.5,0.9,1.2,0.9,2c0,1.1-0.6,2-1.6,2.4c0.3,0.2,0.6,0.5,0.9,0.8
		c0.5,0.6,0.9,1.2,1.2,1.8c0.3,0.5,0.6,1,0.8,1.2l0.5,0.7H147l-0.4-0.6l-0.1-0.1l-0.3-0.4l-0.4-0.7l-0.5-0.8
		c-0.2-0.3-0.5-0.6-0.8-0.9c-0.2-0.2-0.4-0.4-0.6-0.5c-0.3-0.1-0.7-0.2-1-0.1h-0.4v4.2L141.3,176.2z M143.1,167.8h-0.4v3h0.5
		c0.5,0,1,0,1.4-0.2c0.3-0.1,0.5-0.3,0.6-0.5c0.1-0.3,0.2-0.5,0.2-0.8c0-0.3-0.1-0.6-0.2-0.8c-0.2-0.2-0.4-0.4-0.7-0.5
		C144,167.8,143.5,167.7,143.1,167.8L143.1,167.8z"/>
	<path d="M150.7,176.2v-9.6h3.2c1.1,0,2.1,0.2,3.1,0.6c0.8,0.4,1.4,1,1.8,1.7c0.5,0.8,0.7,1.6,0.7,2.5c0,2-1.2,3.7-3.1,4.4
		c-0.3,0.1-0.7,0.2-1,0.3c-0.6,0.1-1.2,0.1-1.7,0.1H150.7z M153.8,167.8h-1.7v7.2h1.8c0.5,0,1.1,0,1.6-0.1c0.3-0.1,0.7-0.2,1-0.4
		c0.3-0.1,0.5-0.3,0.7-0.5c0.7-0.7,1-1.6,1-2.6c0-0.9-0.3-1.9-1-2.5c-0.3-0.2-0.6-0.4-0.9-0.6c-0.3-0.1-0.6-0.2-1-0.3
		C154.9,167.8,154.4,167.8,153.8,167.8z"/>
	<path d="M162.9,166.6h5.4v1.2h-4.1v2.9h3.9v1.2h-3.9v3h4.2v1.2h-5.6V166.6z"/>
	<path d="M179.4,172.2l-1-0.6c-0.5-0.3-1-0.7-1.4-1.2c-0.3-0.4-0.4-0.9-0.4-1.3c0-0.7,0.3-1.4,0.8-1.9c0.6-0.5,1.3-0.7,2-0.7
		c0.8,0,1.6,0.2,2.2,0.7v1.5c-0.6-0.6-1.4-1-2.2-1c-0.4,0-0.8,0.1-1.1,0.3c-0.3,0.2-0.4,0.5-0.4,0.8c0,0.3,0.1,0.6,0.3,0.8
		c0.3,0.3,0.6,0.6,1,0.8l1,0.6c1,0.5,1.7,1.5,1.8,2.7c0,0.7-0.3,1.4-0.8,1.9c-0.5,0.5-1.3,0.8-2,0.7c-0.9,0-1.8-0.3-2.6-0.9v-1.7
		c0.6,0.9,1.5,1.4,2.6,1.4c0.4,0,0.8-0.1,1.1-0.4c0.3-0.2,0.4-0.6,0.4-0.9C180.6,173.3,180.2,172.7,179.4,172.2z"/>
	<path d="M185,166.6h1.4v9.6H185V166.6z"/>
	<path d="M197.7,166.6h1.3v9.6h-1.2l-6.4-7.4v7.4h-1.3v-9.6h1.1l6.5,7.5L197.7,166.6z"/>
	<path d="M210.9,174v1.5c-1.1,0.6-2.3,0.9-3.5,0.8c-1,0-1.9-0.2-2.7-0.6c-0.7-0.4-1.4-1-1.8-1.8c-0.4-0.7-0.7-1.6-0.7-2.5
		c0-1.3,0.5-2.6,1.5-3.5c1-0.9,2.3-1.5,3.7-1.4c1.2,0,2.3,0.3,3.4,0.8v1.5c-1-0.6-2.1-1-3.3-1c-1,0-2,0.3-2.7,1
		c-0.7,0.7-1.1,1.6-1.1,2.6c0,1,0.4,1.9,1.1,2.6c0.7,0.7,1.7,1,2.7,1C208.7,175,209.9,174.7,210.9,174z"/>
	<path d="M214.2,166.6h5.4v1.2h-4.1v2.9h3.9v1.2h-3.9v3h4.2v1.2h-5.6V166.6z"/>
	<path d="M230.1,166.6h1.4v9.6h-1.4V166.6z"/>
	<path d="M236.6,169.2c0-0.7,0.3-1.4,0.9-1.9c0.6-0.5,1.3-0.8,2.1-0.8c0.7,0,1.5,0.3,2,0.8c1,1,1.1,2.6,0.1,3.6
		c-0.1,0.1-0.3,0.3-0.5,0.4c0.8,0.4,1.4,1.3,1.3,2.3c0,0.8-0.3,1.5-0.9,2c-1.3,1-3.1,1-4.4,0c-0.6-0.5-0.9-1.2-0.9-2
		c0-0.9,0.5-1.8,1.4-2.3c-0.4-0.3-0.6-0.6-0.9-1C236.6,169.9,236.5,169.5,236.6,169.2z M241.1,173.6L241.1,173.6
		c0-0.5-0.2-0.9-0.5-1.2c-0.3-0.3-0.8-0.4-1.2-0.4c-0.4,0-0.9,0.1-1.2,0.4c-0.3,0.3-0.5,0.7-0.5,1.1c0,0.4,0.2,0.8,0.5,1.1
		c0.3,0.3,0.8,0.4,1.2,0.4c0.4,0,0.9-0.1,1.2-0.4C240.9,174.4,241.1,174,241.1,173.6z M241,169.2c0-0.4-0.2-0.7-0.4-1
		c-0.6-0.5-1.6-0.5-2.2,0c-0.3,0.3-0.4,0.6-0.4,1c0,0.4,0.2,0.7,0.5,1c0.3,0.3,0.7,0.4,1.1,0.4c0.4,0,0.8-0.1,1.1-0.4
		C240.8,170,241,169.6,241,169.2L241,169.2z"/>
	<path d="M248.8,166.5l0.1-0.1l0.8,1c-0.7,0.4-1.3,0.9-1.8,1.5c-0.5,0.6-0.9,1.3-1.1,2c0.5-0.3,1-0.4,1.5-0.4c0.7,0,1.4,0.3,1.9,0.8
		c0.5,0.5,0.8,1.3,0.8,2c0,0.8-0.3,1.5-0.9,2c-0.5,0.5-1.3,0.9-2,0.8c-0.8,0-1.7-0.4-2.2-1c-0.6-0.7-0.9-1.6-0.8-2.5
		c0-0.8,0.1-1.6,0.4-2.3c0.3-0.8,0.7-1.5,1.2-2.1C247.4,167.6,248.1,167,248.8,166.5z M246.6,172.5c0,0.2-0.1,0.5-0.1,0.7
		c0,0.5,0.1,1,0.5,1.3c0.3,0.3,0.7,0.5,1.2,0.5c0.4,0,0.8-0.2,1.1-0.5c0.3-0.3,0.4-0.7,0.4-1.1c0-0.4-0.1-0.8-0.5-1.1
		c-0.3-0.3-0.8-0.4-1.2-0.4c-0.2,0-0.5,0-0.7,0.1C247.1,172.1,246.8,172.3,246.6,172.5L246.6,172.5z"/>
	<path d="M256.7,166.5c0.9,0,1.8,0.6,2.2,1.4c1.1,2.2,1.1,4.9,0,7.1c-0.6,1.2-2.2,1.7-3.4,1.1c-0.5-0.2-0.8-0.6-1.1-1.1
		c-0.6-1.1-0.9-2.3-0.8-3.6c-0.1-1.2,0.2-2.5,0.9-3.6C254.9,167,255.8,166.5,256.7,166.5z M256.7,167.8L256.7,167.8
		c-0.7,0-1.2,0.4-1.3,1c-0.3,0.8-0.5,1.7-0.5,2.6c0,0.9,0.1,1.8,0.5,2.7c0.2,0.6,0.7,1,1.3,1c0.6,0,1.1-0.4,1.3-1
		c0.3-0.8,0.5-1.7,0.5-2.6c0-0.9-0.1-1.8-0.4-2.7C257.6,168.1,257.2,167.8,256.7,167.8L256.7,167.8z"/>
</g>
<g>
	<polygon points="76.1,72.1 76.1,0 200.8,0 200.8,72.1 138.5,107.9 	"/>
	<polygon fill="#FFFFFF" points="79.4,3.2 79.2,3.2 79.2,70.3 138.4,104.3 138.4,104.3 138.5,104.3 197.6,70.3 197.6,70.3 
		197.6,3.2 	"/>
	<rect x="82.5" y="6.3" fill="#008150" width="111.8" height="36.3"/>
	<polygon fill="#E3001D" points="82.5,45.8 82.5,68.4 138.5,100.5 194.3,68.4 194.3,45.8 	"/>
	<polygon fill="#FFFFFF" points="109.8,38.4 109.8,16.5 121.4,16.5 121.4,10.6 90,10.6 90,16.5 101.6,16.5 101.6,38.4 109.8,38.4 
		109.8,38.4 	"/>
	<path fill="#FFFFFF" d="M185.6,37.9c-6.3,1.2-14.5,1.6-20.3-0.7c-4.6-1.8-8-5.9-8.7-10.8c-0.7-5.4,2-10.7,6.7-13.3
		c5.9-3.6,15.1-3.5,21.6-1l0,0v6c-4.8-1.9-12.1-3.6-16.8-0.5c-3.1,1.9-4.5,5.7-3.5,9.2c1,3,3.4,5.3,6.5,6.2c2.4,0.6,4.8,0.8,7.3,0.5
		l0,0V29H175v-5.4h10.5L185.6,37.9z"/>
	<path fill="#FFFFFF" d="M129.3,32.9l-2.8,5.5h-8.4l13.7-27.8h9.4l13.8,27.8h-8.4l-2.9-5.5H129.3z M136.6,17.5l-5,9.8h9.7
		L136.6,17.5z"/>
	<path fill="#FFFFFF" d="M147.6,89.7V50.2c0-0.1-0.1-0.2-0.2-0.2h-4c-0.1,0-0.2,0.1-0.2,0.2v37.2l-4.7,2.6l-4.7-2.6V50.2
		c0-0.1-0.1-0.2-0.2-0.2h-4c-0.1,0-0.2,0.1-0.2,0.2v39.6c0,0.1,0,0.2,0.1,0.2l8.9,5.1c0.1,0,0.1,0,0.2,0l8.9-5.1
		C147.5,89.9,147.6,89.8,147.6,89.7z"/>
	<path fill="#FFFFFF" d="M122.8,86.1c0.1,0,0.1,0,0.2,0c0.1,0,0.1-0.1,0.1-0.2v-4.3c0-0.1,0-0.2-0.1-0.2l-8.6-4.7V66.4l7.7,1.9
		c0.1,0,0.2-0.1,0.2-0.2v-4.2c0-0.1-0.1-0.2-0.2-0.2l-7.6-1.7v-8.2h8.5c0.1,0,0.2-0.1,0.2-0.2v-3.5c0-0.1-0.1-0.2-0.2-0.2h-12.6
		c-0.1,0-0.2,0.1-0.2,0.2v28.5c0,0.1,0,0.1,0.1,0.2L122.8,86.1z"/>
	<path fill="#FFFFFF" d="M167.6,78.2v-3.8c0-0.1-0.1-0.2-0.2-0.2c0,0-0.1,0-0.1,0l-8.4,4.6V67.5l7.8-2c0.1,0,0.2-0.1,0.2-0.2v-3.8
		c0-0.1,0-0.1,0-0.2h-0.1L159,63v-9h8.5c0.1,0,0.2-0.1,0.2-0.2v-3.5c0-0.1-0.1-0.2-0.2-0.2H155c-0.1,0-0.2,0.1-0.2,0.2v35.2
		c0,0.1,0,0.2,0.1,0.2c0.1,0,0.1,0,0.2,0l12.5-7.2c0.1,0,0.2-0.2,0.1-0.3C167.7,78.2,167.7,78.2,167.6,78.2z"/>
	<path fill="#FFFFFF" d="M99.5,72.7l3.5,2c0.1,0,0.1,0,0.2,0c0.1,0,0.1-0.1,0.1-0.2V50.2c0-0.1-0.1-0.2-0.2-0.2h-3.5
		c-0.1,0-0.2,0.1-0.2,0.2v8.6l-8.3-1.9v-6.8c0-0.1-0.1-0.2-0.2-0.2h-3.4c0,0-0.1,0-0.2,0c0,0,0,0.1,0,0.2v15.4c0,0.1,0,0.2,0.1,0.2
		l3.4,1.9c0.1,0,0.1,0,0.2,0c0.1,0,0.1-0.1,0.1-0.2v-7.1l8.3,2.1v10C99.4,72.5,99.4,72.6,99.5,72.7C99.5,72.7,99.5,72.7,99.5,72.7z"
		/>
	<path fill="#FFFFFF" d="M174.2,74.4c0.1,0,0.1,0,0.2,0l3.6-2v-9.9l2.1-0.5l6.2,5.5c0.1,0.1,0.2,0.1,0.3,0l3.1-1.9
		c0,0,0.1-0.1,0.1-0.1c0,0,0-0.1,0-0.1l-5.4-4.6l3.8-1c1.3-0.3,1.5-0.9,1.5-2.2v-6.3c-0.1-0.9-0.9-1.5-1.8-1.4h-13.5
		c-0.1,0-0.2,0.1-0.2,0.2v24.3C174.1,74.3,174.1,74.4,174.2,74.4z M178,53.8h7.3c0.3,0,0.6,0.3,0.6,0.6v1.9c0,0.4,0,0.6-0.6,0.8
		l-7.2,1.6V53.8z"/>
</g>
</svg>
